<?xml version="1.0" standalone="no"?><!DOCTYPE svg PUBLIC "-//W3C//DTD SVG 1.1//EN" "http://www.w3.org/Graphics/SVG/1.1/DTD/svg11.dtd"><svg t="1521451768593" class="icon" style="" viewBox="0 0 1034 1024" version="1.1" xmlns="http://www.w3.org/2000/svg" p-id="2010" xmlns:xlink="http://www.w3.org/1999/xlink" width="201.953125" height="200"><defs><style type="text/css">html, * { user-select: text !important; }
</style></defs><path d="M692.559951 742.920976a18.425866 18.425866 0 0 0-24.357326 9.269316L597.656594 909.182275a18.425866 18.425866 0 1 0 33.626641 15.08801l70.500925-156.991984a18.425866 18.425866 0 0 0-9.224209-24.357325zM762.677473 815.045723a18.3131 18.3131 0 0 0-24.199453 9.201656l-37.641089 83.829795a18.290547 18.290547 0 0 0 33.378557 14.997797l37.663642-83.829794a18.3131 18.3131 0 0 0-9.201657-24.199454zM772.262532 65.065633a112.630077 112.630077 0 0 0-35.972161-9.382081 113.374328 113.374328 0 0 0-20.297771-1.894459H307.218042a113.036032 113.036032 0 0 0 0 226.072065h222.37336a15.133116 15.133116 0 0 1 5.435292 1.262972 14.862479 14.862479 0 0 1 7.465069 19.643732 7.600388 7.600388 0 0 1-0.428509 0.721698L313.487798 810.647872a112.765395 112.765395 0 0 0-8.637829 29.815171 50.924852 50.924852 0 0 1 28.101137 92.467624 112.630077 112.630077 0 0 0 37.347898 27.063695 113.036032 113.036032 0 0 0 149.414149-56.811206L829.073738 214.479782a113.013479 113.013479 0 0 0-56.811206-149.414149zM311.458021 245.67069a80.153643 80.153643 0 1 1 80.153643-80.153643 80.153643 80.153643 0 0 1-80.153643 80.153643z" p-id="2011" fill="#ffffff"></path></svg>