<?xml version="1.0" standalone="no"?>
<!DOCTYPE svg PUBLIC "-//W3C//DTD SVG 1.1//EN" "http://www.w3.org/Graphics/SVG/1.1/DTD/svg11.dtd" >
<!--
2013-9-30: Created.
-->
<svg>
<metadata>
Created by iconfont
</metadata>
<defs>

<font id="iconfont" horiz-adv-x="1024" >
  <font-face
    font-family="iconfont"
    font-weight="500"
    font-stretch="normal"
    units-per-em="1024"
    ascent="896"
    descent="-128"
  />
    <missing-glyph />
    
    <glyph glyph-name="shouji1" unicode="&#58903;" d="M820.409449 45.43832065000004q0-25.19685-10.07874-46.866142t-27.716535-38.299213-41.322835-26.204724-50.897638-9.574803l-357.795276 0q-27.212598 0-50.897638 9.574803t-41.322835 26.204724-27.716535 38.299213-10.07874 46.866142l0 675.275591q0 25.19685 10.07874 47.370079t27.716535 38.80315 41.322835 26.204724 50.897638 9.574803l357.795276 0q27.212598 0 50.897638-9.574803t41.322835-26.204724 27.716535-38.80315 10.07874-47.370079l0-675.275591zM738.771654 672.33595765l-455.559055 0 0-577.511811 455.559055 0 0 577.511811zM510.992126 66.60367465000002q-21.165354 0-36.787402-15.11811t-15.622047-37.291339q0-21.165354 15.622047-36.787402t36.787402-15.622047q22.173228 0 37.291339 15.622047t15.11811 36.787402q0 22.173228-15.11811 37.291339t-37.291339 15.11811zM591.622047 758.00524965q0 8.062992-5.03937 12.598425t-11.086614 4.535433l-128 0q-5.03937 0-10.582677-4.535433t-5.543307-12.598425 5.03937-12.598425 11.086614-4.535433l128 0q6.047244 0 11.086614 4.535433t5.03937 12.598425z"  horiz-adv-x="1024" />

    
    <glyph glyph-name="rss3" unicode="&#59067;" d="M370.09879198 141.70459699000003c0-13.06525935-2.36712855-25.09893048-7.14467518-36.13969631-4.77386259-11.0030028-11.26826839-20.66586044-19.55782358-28.95817889-8.2886335-8.249028-18.07030855-14.78396099-29.33857693-19.55782356-11.30511063-4.73517788-23.18772785-7.14099114-35.75561421-7.14099115-13.02749631 0-25.06024576 2.40673405-36.1000908 7.14099115-11.03984504 4.77662585-20.66586044 11.30787389-28.9581789 19.55782356-8.2886335 8.29231844-14.78396099 17.95517608-19.55782357 28.95817889-4.77386259 11.04076583-7.14099114 23.07351616-7.14099114 36.13969631 0 12.52828085 2.36712855 24.44681862 7.14099114 35.71600781 4.77754664 11.30879558 11.26918918 21.0858649 19.55782357 29.33857694 8.29231844 8.2886335 17.91925463 14.8235665 28.9581789 19.55782356 11.03984504 4.77386259 23.07259448 7.14467518 36.1000908 7.14467519 12.56788636 0 24.45050267-2.36804933 35.75561421-7.14467519 11.26826839-4.73794114 21.04994343-11.26918918 29.33857693-19.55782356 8.2886335-8.25271294 14.78396099-18.02978226 19.55782358-29.33857694C367.72890018 166.15141561999997 370.09879198 154.23287784000001 370.09879198 141.70459699000003M249.72708451 485.51112687c51.64761207 0 100.20045676-9.89220268 145.58208546-29.71897589 45.38255039-19.8276949 84.99649131-46.64532612 118.84366526-80.48881601 33.88309541-33.84717393 60.70072661-73.49795801 80.52842152-118.88327167 19.78716771-45.38162961 29.68305444-93.89855286 29.68305444-145.58208547 0-18.03070305-6.38019413-33.46309093-19.17834632-46.26124312-12.76130904-12.7972305-28.19369782-19.17742462-46.26400637-19.17742462-18.06570372 0-33.46309093 6.38019413-46.26032235 19.17742462-12.7972305 12.79815219-19.17834631 28.23054008-19.17834631 46.26124312 0 33.61782981-6.41611559 65.20840282-19.17374058 94.81316703-12.79815219 29.56792197-30.21726967 55.43133351-52.30064469 77.4714181-22.07969009 22.08245334-47.90349613 39.49972926-77.50826033 52.29603896-29.56792197 12.80091545-61.15941577 19.17834631-94.77724557 19.17834632-18.06570372 0-33.46309093 6.38111492-46.26032235 19.1783463-12.7972305 12.7972305-19.17466137 28.2296193-19.17466136 46.26032235 0 18.06938776 6.38111492 33.50269733 19.17834631 46.26032233C216.26399356 479.09409051 231.65861752 485.51112687 249.72708451 485.51112687M249.72708451 733.015134c57.18595571 0 112.234127-7.40994077 165.14359309-22.19390176 52.90670284-14.78488177 102.41376814-35.71969275 148.56264116-62.80258956 46.14611066-27.08566007 88.16678563-59.59545301 126.02518357-97.44924522 37.85655547-37.85747627 70.32674201-79.87815214 97.41332376-125.98834135 27.08289681-46.14611066 48.01770779-95.69185977 62.83851103-148.59856261 14.78396099-52.91038779 22.1975858-107.95763829 22.1975858-165.14359309 0-18.03070305-6.41979964-33.46309093-19.17834631-46.26124311-12.7972305-12.80091545-28.2296193-19.17742462-46.29992783-19.17742463-18.02978226 0-33.46309093 6.37651009-46.26032234 19.17742463-12.7972305 12.79815219-19.17834631 28.23054008-19.17834631 46.26124311 0 45.15228457-5.88189945 88.66600109-17.68530477 130.53193812-11.76748384 41.90646331-28.34475175 81.02303125-49.6249601 117.39207257-21.35481453 36.32943494-46.91059171 69.44804929-76.74377928 99.28215764-29.87371386 29.83687161-62.95640674 55.43133351-99.32176404 76.74746333-36.36811966 21.31520903-75.48745086 37.85655547-117.35523035 49.66088157-41.8668578 11.76748384-85.38057432 17.64938331-130.5328589 17.6493833-18.03070305 0-33.46309093 6.41703637-46.26032232 19.17834631-12.7972305 12.7972305-19.17834631 28.23054008-19.1783463 46.29624379 0 18.03346631 6.38111492 33.46677589 19.1783463 46.26400639C216.26399356 726.63493988 231.65861752 733.015134 249.72708451 733.015134"  horiz-adv-x="1024" />

    
    <glyph glyph-name="gouxuan2" unicode="&#58908;" d="M512.347924 825.446108c-248.046353 0-449.128067-201.081715-449.128067-449.128067s201.081715-449.128067 449.128067-449.128067 449.128067 201.081715 449.128067 449.128067S760.394277 825.446108 512.347924 825.446108zM766.674307 458.836429 485.969137 178.117956c-8.223289-8.223289-18.996656-12.335956-29.770024-12.335956s-21.546735 4.111644-29.770024 12.335956L258.006192 346.540853c-16.447601 16.447601-16.447601 43.092447 0 59.540048 16.447601 16.447601 43.092447 16.447601 59.540048 0l138.652873-138.652873 250.935146 250.948449c16.447601 16.447601 43.092447 16.447601 59.540048 0C783.121907 501.942179 783.121907 475.284029 766.674307 458.836429z"  horiz-adv-x="1024" />

    
    <glyph glyph-name="iconfontpinglun" unicode="&#58939;" d="M511.999 48.117c-28.734 0-56.729 2.604-83.97 7.1L231.233-64.186 231.233 134.593C128.618 206.645 62.772 317.11 62.772 441.174c0 217.08 201.13 393.059 449.229 393.059 248.084 0 449.229-175.98 449.229-393.059C961.228 224.083 760.083 48.117 511.999 48.117zM511.999 778.083c-217.087 0-393.074-150.852-393.074-336.908 0-114.166 66.422-214.898 167.762-275.82l-1.769-130.234 132.172 79.456c30.448-6.498 62.117-10.31 94.91-10.31 217.102 0 393.073 150.825 393.073 336.907C905.073 627.23 729.102 778.083 511.999 778.083zM736.614 385.023c-31.011 0-56.153 25.128-56.153 56.15 0 31.011 25.143 56.152 56.153 56.152 31.012 0 56.154-25.142 56.154-56.152C792.768 410.151 767.624 385.023 736.614 385.023zM511.999 385.023c-31.011 0-56.153 25.128-56.153 56.15 0 31.011 25.143 56.152 56.153 56.152 31.012 0 56.154-25.142 56.154-56.152C568.154 410.151 543.011 385.023 511.999 385.023zM287.386 385.023c-31.011 0-56.153 25.128-56.153 56.15 0 31.011 25.143 56.152 56.153 56.152 31.01 0 56.152-25.142 56.152-56.152C343.538 410.151 318.396 385.023 287.386 385.023z"  horiz-adv-x="1024" />

    
    <glyph glyph-name="shouji-copy" unicode="&#58931;" d="M514.553 81.183c-28.167 0-51.083-22.914-51.083-51.084 0-28.167 22.916-51.084 51.083-51.084 28.169 0 51.086 22.915 51.086 51.084-0.001 28.17-22.917 51.084-51.086 51.084zM767.288 885.26h-505.468c-42.523 0-77.118-34.595-77.118-77.118v-848.284c0-42.524 34.595-77.118 77.118-77.118h505.467c42.523 0 77.117 34.594 77.117 77.118v848.284c0.001 42.523-34.593 77.118-77.116 77.118zM261.82 833.847h505.467c14.175 0 25.707-11.533 25.707-25.707v-635.529h-556.879v635.53c0 14.174 11.532 25.706 25.706 25.706zM767.288-65.846h-505.468c-14.174 0-25.707 11.531-25.707 25.706v156.941h556.88v-156.942c0.001-14.175-11.531-25.705-25.706-25.705z"  horiz-adv-x="1024" />

    
    <glyph glyph-name="youxiang" unicode="&#58930;" d="M893.421013 589.41857135c-1.982144-16.412808-9.237385-32.210609-21.676695-44.729737L581.597101 254.54161835000002c-29.696346-29.696346-78.243015-29.696346-107.939361 0L183.510524 544.68883435c-12.519128 12.519128-19.770276 28.396747-21.676695 44.729737-0.38374-3.130294-0.611937-6.259564-0.611937-9.465582l0-396.939451c0-41.983183 34.348296-76.335572 76.336596-76.335572l580.14196 0c41.980113 0 76.332503 34.352389 76.332503 76.335572L894.03295 579.95298935C894.03295 583.15900735 893.804752 586.2882783499999 893.421013 589.41857135L893.421013 589.41857135 893.421013 589.41857135zM581.597101 310.11123835l304.193117 304.19414c-12.598946 24.883737-38.473243 41.983183-68.089771 41.983183L237.558487 656.28856135c-29.616528 0-55.499012-17.099447-68.089771-41.983183L473.65774 310.11123835C503.349993 280.41591535 551.900755 280.41591535 581.597101 310.11123835L581.597101 310.11123835 581.597101 310.11123835z"  horiz-adv-x="1024" />

    
    <glyph glyph-name="fangdajing" unicode="&#58919;" d="M951.867146-11.125129 740.245378 200.496639c56.622602 66.858734 90.769306 153.358807 90.769306 247.834528 0 211.911364-171.788551 383.699915-383.699915 383.699915S63.61383 660.243555 63.61383 448.331167s171.788551-383.699915 383.699915-383.699915c94.595448 0 181.193759 34.233686 248.087285 90.985224l211.604372-211.604372c9.792017-9.792017 25.668613-9.792017 35.461653 0l9.401114 9.401114C961.660186-36.793742 961.660186-20.917146 951.867146-11.125129zM128.600937 448.639183c0 176.893826 143.401014 320.29484 320.29484 320.29484s320.29484-143.401014 320.29484-320.29484-143.401014-320.29484-320.29484-320.29484S128.600937 271.745357 128.600937 448.639183z"  horiz-adv-x="1024" />

    
    <glyph glyph-name="xiangyoujiantou1" unicode="&#58975;" d="M761.6 406.4l-432 435.2c-9.6 9.6-25.6 9.6-35.2 0-9.6-9.6-9.6-25.6 0-35.2l416-416-416-425.6c-9.6-9.6-9.6-25.6 0-35.2s25.6-9.6 35.2 0l432 441.6C771.2 380.8 771.2 396.8 761.6 406.4z"  horiz-adv-x="1024" />

    
    <glyph glyph-name="xiangzuojiantou1" unicode="&#58976;" d="M729.6-35.2l-416 425.6 416 416c9.6 9.6 9.6 25.6 0 35.2-9.6 9.6-25.6 9.6-35.2 0l-432-435.2c-9.6-9.6-9.6-25.6 0-35.2l432-441.6c9.6-9.6 25.6-9.6 35.2 0C739.2-60.8 739.2-44.8 729.6-35.2z"  horiz-adv-x="1024" />

    
    <glyph glyph-name="xitongcaidan" unicode="&#59030;" d="M929.70745 596.56321 93.792153 596.56321c-16.575514 0-30.013571 13.100366-30.013571 29.67588s13.438057 29.67588 30.013571 29.67588l835.916321 0c16.575514 0 30.013571-13.100366 30.013571-29.67588S946.283987 596.56321 929.70745 596.56321zM775.639492 349.946416 93.792153 349.946416c-16.575514 0-30.013571 13.612019-30.013571 30.187533s13.438057 30.187533 30.013571 30.187533L775.639492 410.321482c16.575514 0 30.013571-13.612019 30.013571-30.187533S792.215006 349.946416 775.639492 349.946416zM929.70745 104.352929 93.792153 104.352929c-16.575514 0-30.013571 13.100366-30.013571 29.67588s13.438057 29.67588 30.013571 29.67588l835.916321 0c16.575514 0 30.013571-13.100366 30.013571-29.67588S946.283987 104.352929 929.70745 104.352929z"  horiz-adv-x="1024" />

    
    <glyph glyph-name="yinhao" unicode="&#59063;" d="M775.99151 458.27361c48.131207 74.887594 116.28647 138.249691 183.03878 183.556573l-75.134211 79.401398c-172.480306-67.64054-336.783373-242.611573-336.783373-448.439382l1.327228 0c-0.568958-6.231935-0.874927-12.540617-0.874927-18.920932 0-113.585965 92.077092-205.663056 205.663056-205.663056 113.581871 0 205.663056 92.077092 205.663056 205.663056C958.892143 359.760946 878.860389 446.944588 775.99151 458.27361zM472.916866 641.830183l-75.134211 79.401398c-172.480306-67.64054-336.783373-242.611573-336.783373-448.439382l1.327228 0c-0.568958-6.231935-0.874927-12.540617-0.874927-18.920932 0-113.585965 92.077092-205.663056 205.663056-205.663056s205.663056 92.077092 205.663056 205.663056c0 105.890702-80.028685 193.075367-182.900633 204.403367C338.00827 533.161205 406.163533 596.523301 472.916866 641.830183z"  horiz-adv-x="1024" />

    
    <glyph glyph-name="dian" unicode="&#58892;" d="M512 384m-128 0a4 4 0 1 0 256 0 4 4 0 1 0-256 0Z"  horiz-adv-x="1024" />

    
    <glyph glyph-name="qzone" unicode="&#59176;" d="M742.14031791 318.45039079000003c-9.55892557-9.12860348-11.52687652-13.43716696-9.55892556-26.12687583l3.97114017-21.75317635c-88.452096 1.08701843-186.85393252 5.13824243-266.72520522 16.42806887-6.49114226 0.95994991-0.42925461 4.46980174-0.4292546 4.46980174l259.50582469 179.90790783c0 0 10.22629878 6.38649809-0.67378017 8.05226295-14.16540522 2.3192567-43.93881078 6.39504104-43.81174226 6.46124453-52.52176904 6.44309217-110.16149322 9.94012904-170.66825322 9.94012904-102.56197565 0-196.92646852-10.20707896-271.91470226-27.32708035l7.62194087 0c110.98049322 0 228.95613078-4.23061461 335.48924661-20.83273461 6.70043061-0.94179757-0.00854191-5.14144591-0.00854192-5.14144591L325.777136 258.31735878999996c0 0-10.88299513-6.49541426-0.81473009-8.06507687 26.87646991-3.69030887 55.12826296-6.58724452 84.55570226-8.64275478l0.00427096 0.00854191c33.52564696-2.32673113 68.47893913-3.6508007 104.45091026-3.6508007 97.53371583 0 202.71179687 10.86911374 279.19921878 29.17757426l5.18095513 1.00266261c-12.85521704-10.38646852-34.25708765-19.52574991-56.37331513-27.01208035l36.98317566-202.81750852c3.98822504-21.81831235-8.41104313-30.5795927-27.63033496-19.49051269L535.22994017 143.66684399999997c-14.81889704 9.19480696-28.75686157 8.9097047-43.86086087-0.63533947L276.28043861 18.82740365999996c-19.19686852-11.07092765-31.5801193-2.31818922-27.48084313 19.4744953l48.30076487 254.22022539c2.471952 11.42970783 2.31818922 15.01216904-6.49648174 23.26410992L102.1973673 488.98837305c-16.04045843 15.31755861-11.07519861 29.60148939 10.9096894 31.81503443l240.14665147 26.93306296c18.65869878 1.78429043 22.19204139 4.71112383 29.93143931 17.76388383l113.01998713 235.26468c9.70307791 19.93791965 25.53531548 19.93791965 35.22985148 0l106.01096243-235.26468c5.895312-15.40511896 10.21134991-18.3992233 29.08894644-20.13012313l247.94904939-24.58070505c21.99770191-2.16869739 26.82841878-16.39176313 10.60216382-31.49576348L742.08479235 318.24110243999996 742.14031791 318.45039079000003 742.14031791 318.45039079000003zM742.14031791 318.45039079000003"  horiz-adv-x="1024" />

    
    <glyph glyph-name="changyonglogo28" unicode="&#59157;" d="M471.66705173 444.17801949c56.80636244 59.63666685 128.80431224 80.50324807 213.510973 75.89266172-1.88982036 8.66020171-1.96173986 15.37747304-4.74668034 20.67184659-13.74545567 26.13440031-24.54332239 54.91654207-43.01996731 77.28236613-110.55006471 133.82096614-333.08747363 149.71183292-462.19606107 33.72355672-66.70357625-59.92655708-94.4843789-134.82119913-75.40582355-223.61288086 12.21633893-56.84730081 47.1304377-100.2489945 92.56579075-134.67182845 14.81096927-11.22606426 17.20975779-21.26379872 10.845444-37.42021348-7.89785612-20.04116834-13.85056853-40.85132117-20.64197161-61.32953819 19.02655145 4.18902771 34.40181117 10.55444764 48.56108048 18.96790974 33.2024169 19.72804309 66.16141472 30.46062919 106.16408798 18.27416419 24.15274487-7.35348126 51.43011103-4.45900235 80.83739721-6.40193274C396.82219919 311.88285065 414.22669269 383.86973708999994 471.66705173 444.17801949zM496.79679348 599.7839230899999c21.44636277 0.30759357 34.38189558-11.8102703 34.84549872-32.63038144 0.47798705-21.46849167-11.59783232-34.59765408-32.2663584-35.08228001-23.75552844-0.55875875-41.69997016 13.77643571-41.87036362 33.44362375C457.34181452 584.44075062 474.57148898 599.4696906199999 496.79679348 599.7839230899999zM293.14873591 532.0790077300001c-23.45567988-0.07966451-40.85906618 14.67598141-40.59130487 34.41508894 0.2522713 18.76321677 17.45539021 33.11722071 39.89534708 33.2953592 21.16753699 0.16264846 35.8512634-14.12275542 35.53813814-34.58216298C327.68664105 545.31992081 313.83053975 532.1431822100001 293.14873591 532.0790077300001zM861.63723286 435.1316669c-88.44314977 85.17358335-232.57735671 98.8747812-337.58077655 32.0804749-135.66984812-86.2988448-134.49922166-263.57572186 2.99627233-346.79641649 66.04413128-39.97501158 137.47668452-51.16677528 212.55389171-30.91538013 15.54565319 4.19456047 28.11495071 2.98299563 41.76967632-5.47915093 18.56958719-11.51042173 38.34631366-21.07902027 57.60743306-31.48077778 1.37753275 1.02789359 2.75506549 2.05578826 4.13259932 3.08478905-5.27888354 18.40251317-11.67417738 36.59258729-15.26461409 55.32260962-1.35097827 7.03592935 1.6552524 17.18762781 6.41410332 22.67231151 12.24731896 14.09841427 27.69671149 25.42627086 39.91415654 39.55345292C946.32287083 256.60228660999996 941.19557129 358.50653351000005 861.63723286 435.1316669zM595.99465827 334.05725844999995c-16.0723247-0.24673854-29.07645757 12.17982611-28.57191495 27.29949508 0.49347815 14.8209276 12.2428934 25.33332966 28.27206639 25.29017796 17.63795426-0.04536502 32.09596493-12.38341294 31.57814563-26.94653649C626.78832939 346.13418501 612.36461822 334.30842362 595.99465827 334.05725844999995zM756.21114823 334.02406507c-14.58082688 0.22018406-28.45573765 12.70207098-28.7976307 25.90536511-0.36844862 14.13271375 13.72332676 26.86576585 29.59870243 26.7451619 18.12921908-0.14051956 31.2451037-11.98509041 30.53586706-27.57168197C786.91409041 345.18927429999997 772.64860211 333.77290098000003 756.21114823 334.02406507z"  horiz-adv-x="1024" />

    
    <glyph glyph-name="biaoqian" unicode="&#58896;" d="M569.426921 619.383962c-49.018414-49.052183-49.018414-128.888486 0-177.975461 24.020066-23.952528 55.799864-36.873816 88.759533-36.873816 9.513678 0 19.094894 1.079588 28.64234 3.272533 22.940478 5.296633 43.890626 16.935718 60.58996 33.635051l0.033769 0.033769c17.070794 17.104563 28.777417 38.526455 33.905204 62.007239 9.209756 42.119283-3.475148 85.470627-33.938973 115.917056C698.366571 668.45354 618.479103 668.503683 569.426921 619.383962zM713.88501 518.226051c-2.328022-10.525728-7.624654-20.208251-15.349593-27.966958-7.523347-7.523347-16.935718-12.752442-27.225061-15.114233-19.397792-4.520967-39.10053 1.248434-53.032844 15.146978-22.097274 22.131043-22.097274 58.127885 0 80.241532 11.06501 11.06501 25.606191 16.598027 40.146349 16.598027s29.080316-5.51562 40.146349-16.581654C712.299909 556.803671 718.034517 537.237033 713.88501 518.226051zM956.212104 471.029122l-17.475 234.651274c-4.149507 56.289004-49.761334 101.798501-106.066711 105.8467L598.777389 828.346157c-42.339294 3.036149-84.441181-12.532431-114.668623-42.777269L110.447485 411.92398c-57.418734-57.418734-57.418734-150.868079 0-208.286814l221.208101-221.208101c27.798113-27.831882 64.807005-43.148729 104.143918-43.148729 39.33589 0 76.344782 15.315824 104.143918 43.148729L913.468604 355.95527C943.797353 386.284019 959.38333 428.251853 956.212104 471.029122zM864.618013 404.805862 491.091808 31.278633c-30.497595-30.497595-80.090083-30.497595-110.586654 0l-221.208101 221.208101c-30.497595 30.497595-30.497595 80.090083 0 110.586654l373.695051 373.661282c14.675234 14.709003 34.545794 22.890336 55.225789 22.890336 1.855254 0 3.744277-0.067538 5.634324-0.202615l233.859235-16.817014c22.367427-1.602498 40.483017-19.667945 42.136679-42.035372L887.323131 465.901335C889.00954 443.19724 880.744295 420.931121 864.618013 404.805862z"  horiz-adv-x="1024" />

    
    <glyph glyph-name="zhifu3" unicode="&#59057;" d="M583.991638 366.02972l108.041692 0 0-72.04792-108.041692 0 0 72.04792ZM187.92609 366.02972l324.07391 0 0-72.04792-324.07391 0 0 72.04792ZM872.067682 762.094244 151.930271 762.094244c-59.697637 0-108.042715-48.345078-108.042715-107.986433l0-540.15934c0-59.641355 48.345078-108.042715 108.042715-108.042715l720.137411 0c59.697637 0 108.043738 48.40136 108.043738 108.042715L980.11142 654.107811C980.11142 713.749166 931.765319 762.094244 872.067682 762.094244zM944.115602 113.948471c0-39.761586-32.230052-71.991638-72.04792-71.991638L151.930271 41.956833c-39.815821 0-72.046896 32.230052-72.046896 71.991638L79.883375 510.069277l864.231203 0L944.114578 113.948471zM944.115602 582.058868 79.884398 582.058868 79.884398 654.107811c0 39.761586 32.230052 71.991638 72.046896 71.991638l720.137411 0c39.816844 0 72.04792-32.230052 72.04792-71.991638L944.116625 582.058868zM187.92609 221.991186l288.078091 0 0-72.04792-288.078091 0 0 72.04792Z"  horiz-adv-x="1024" />

    
    <glyph glyph-name="xuanzeweixuanze" unicode="&#59003;" d="M511.7952 640c141.2096 0 256-114.7904 256-256s-114.7904-256-256-256-256 114.7904-256 256S370.688 640 511.7952 640M511.7952 691.2c-169.6768 0-307.2-137.5232-307.2-307.2 0-169.6768 137.5232-307.2 307.2-307.2s307.2 137.5232 307.2 307.2C818.9952 553.6768 681.472 691.2 511.7952 691.2L511.7952 691.2z"  horiz-adv-x="1024" />

    
    <glyph glyph-name="xuanzeyixuanze" unicode="&#59004;" d="M514.56 640c141.2096 0 256-114.7904 256-256s-114.7904-256-256-256-256 114.7904-256 256S373.3504 640 514.56 640M514.56 691.2c-169.6768 0-307.2-137.5232-307.2-307.2 0-169.6768 137.5232-307.2 307.2-307.2s307.2 137.5232 307.2 307.2C821.76 553.6768 684.2368 691.2 514.56 691.2L514.56 691.2zM680.09470348 490.89585481c-8.0230198 7.27669237-20.43071321 6.71694681-27.70740557-1.30607299L479.42591769 299.46287087999997l-124.26351588 107.28456702c-8.20960165 7.09011052-20.61729504 6.15720124-27.70740555-2.05240041-7.09011052-8.20960165-6.15720124-20.61729504 2.05240038-27.70740556l138.81690063-119.78555134c1.11949113-1.0262002 2.51885504-1.58594578 3.82492805-2.23898229 0.74632741-0.37316371 1.39936391-0.93290928 2.14569134-1.21278207 2.23898226-0.83961836 4.57125546-1.21278207 6.81023774-1.21278203 2.70543691 0 5.41087381 0.55974558 7.92972885 1.67923668 0.83961836 0.37316371 1.49265484 1.11949113 2.23898229 1.6792367 1.49265484 0.93290928 3.07860063 1.77252764 4.29138265 3.07860062L681.40077647 463.0951583C688.67746883 471.11817811 688.11772327 483.52587151 680.09470348 490.89585481"  horiz-adv-x="1024" />

    
    <glyph glyph-name="jiantou1" unicode="&#58926;" d="M398.499 659.5l274.256-274.256-274.256-274.256z"  horiz-adv-x="1024" />

    
    <glyph glyph-name="QQ" unicode="&#58922;" d="M250.16533334 437.04990477l-1.344 4.192-1.056 5.44-0.768 2.976v12.256l1.312 4.832 1.344 5.12 1.728 5.312 2.336 5.952 3.104 6.24 4.384 6.176v4.384l0.416 4.032 0.64 5.536 1.888 6.208 1.728 6.72 1.376 3.104 1.6 2.88 2.048 3.2 2.208 2.336V549.30590477l1.312 7.904 1.312 9.184 2.304 11.008 3.2 11.392 2.368 6.336 2.336 6.816 2.56 6.4 3.104 6.816 3.136 7.488 3.616 7.04 4.032 7.456 5.12 7.488 2.368 4.256 2.528 3.52 5.472 7.904 5.632 7.904 6.4 8.096 6.848 7.904 7.456 7.808 7.776 8 9.408 8.64 5.984 5.216 7.264 5.664 7.36 5.024 8 4.8 7.648 4.256 8.64 3.52 9.184 4.384 9.12 2.976 9.152 3.072 9.792 3.104 9.856 2.368 10.336 1.92 10.496 1.696 10.304 1.408 10.368 1.376 11.008 0.64h32.544l10.848-1.376 10.912-1.28 11.104-1.216 10.336-2.432 10.912-2.336 10.24-2.656 11.168-3.008 10.272-3.616 9.824-4.16 10.464-4.384 9.568-4.8 9.312-5.312 9.088-5.888 7.872-5.44 3.616-3.104 3.84-2.24 7.296-6.208 6.144-5.952 6.08-6.208 6.016-6.816 4.928-6.624 5.792-6.816 4.128-7.392 4.128-6.496 4.384-7.584 3.616-6.592 6.176-14.016 3.008-7.232 2.368-6.72 2.336-7.264 2.112-6.816 1.504-5.888 1.888-6.912 3.36-12.384 2.112-10.784 1.376-10.464 1.216-8.416 1.856-12.8 0.448-2.048 1.504-2.368 4.064-6.624 2.592-4.448 2.304-4.704 2.976-4.992 2.592-6.016 1.696-6.176 1.792-6.72 1.408-6.944 0.672-3.392 0.544-4.16v-3.648l-0.544-3.648v-4.48l-1.088-4.352-1.92-8.416-2.24-4.288-1.6-4.8v-1.184l0.736-1.504 2.24-3.52 9.6-14.176 7.616-10.656 3.616-7.168 4.896-7.776 4.288-8.544 4.896-9.184 4.896-10.24 5.536-11.616 3.136-7.168 2.848-6.944 2.496-7.36 2.4-6.592 1.824-6.976 1.888-6.496 2.4-12.704 1.888-13.024 1.28-11.488v-16.256l-0.864-5.76-1.248-9.952-1.696-8.928-2.656-8.096-0.992-3.328-1.824-3.936-1.568-2.784-2.048-3.424-1.824-2.144-2.304-2.752-2.08-2.24-2.208-1.92-2.656-1.152-2.368-1.184-1.92-0.64h-2.976l-1.952 0.64-3.616 1.792-1.696 1.184-1.728 1.28-1.888 1.696-1.92 1.92-3.2 3.52-3.776 5.024-2.976 5.12-2.944 4.16-2.912 4.8-4.064 8.544-4.576 8.864-0.544 0.32h-0.768l-1.888-1.376-1.088-2.368-1.76-2.88-3.136-8.64-4.704-12.288-6.048-14.72-4.544-7.36-4.768-7.68-5.632-8.64-6.016-8.448-3.072-3.84-3.712-4.16-8.576-8.416 0.768-0.736 1.152-1.216 4.288-2.528 17.792-8.544 7.776-4.384 7.424-4.256 7.328-5.344 6.528-5.568 3.2-2.432 2.368-2.88 2.4-3.296 2.08-3.648 1.088-2.976 1.344-3.648 0.544-3.072 0.64-3.648-0.64-2.432v-2.464l-0.544-2.56-1.344-2.336-0.544-1.856-1.216-2.208-3.2-4.384-2.976-3.52-2.336-2.656-1.952-1.92-4.896-3.648-5.568-3.104-5.952-2.976-6.304-2.88-7.136-2.784-3.776-1.152-3.392-0.96-8.192-1.952-8.544-1.792-8.512-1.792-9.28-1.536-9.632-0.416-9.824-1.184H659.06133334l-11.008 0.64-10.272 0.96-11.008 1.536-10.944 1.152-11.552 1.6-11.2 2.784-10.88 2.112-10.88 3.104-11.104 3.968-10.912 3.296-5.728 1.888-5.12 1.856-3.232 1.28-3.2 0.64H522.96533334l-10.464 0.736-5.312 0.544-6.848 0.736-4.352-3.936-6.016-3.744-8.096-3.968-8.96-4.896-5.44-2.656-5.696-2.144-12.576-5.12-6.816-1.728-7.136-1.92-9.952-1.92-6.208-0.48-6.592-0.576-6.848-0.736-8-0.352H365.04533334l-18.432 0.352-17.888 1.792-9.088 1.28-8.736 1.312-8.512 1.248-8.544 1.728-7.904 2.56-7.904 1.792-7.136 2.912-6.752 2.656-6.272 3.008-5.408 3.296-5.472 3.936-1.824 1.92-2.432 2.368-1.856 2.016-1.664 2.336-1.504 2.368-1.184 2.336-1.696 4.992-0.64 2.592-0.736 2.88v2.656l0.736 2.976v3.04l0.64 2.976v5.984l0.288 3.168 1.408 3.648 1.184 3.616 2.144 4.384 1.568 1.696 1.312 1.92 3.392 4.16 2.688 2.144 2.56 1.504 2.336 1.92 3.744 1.152 2.976 1.824 3.712 1.92 4.288 1.248 4.256 1.312 4.928 1.088 4.672 0.64 5.568 0.736 5.984 0.416 1.6 0.544h0.32l0.768 0.64V151.16190476999998l-1.088 1.504-3.2 1.472-8 6.944-5.344 4.288-6.208 5.408-6.272 6.08-6.528 7.808-7.424 8.736-2.816 4.704-3.744 4.928-3.168 5.664-2.88 6.176-3.872 5.856-2.528 6.752-3.008 6.72-3.008 7.456-2.208 7.136-2.048 8.864-0.64 0.352h-0.64l-0.288 0.64h-0.768l-1.28-0.64-0.64-0.352-0.864-1.472-0.32-1.824-0.672-1.6-1.12-2.656-3.68-6.528-1.888-3.936-3.008-3.424-3.2-4.16-3.488-4.576-3.744-4.064-4.352-3.968-4.096-3.712-4.448-2.912-4.928-3.072-4.672-1.824-5.568-1.376-5.44-0.544H162.13333334l-1.248 0.544-0.96 2.144-1.632 1.056-2.08 5.12-1.312 2.784-1.408 3.936-1.152 4.16-0.608 4.064-1.76 9.28-0.64 5.44V262.48990476999995l0.64 13.312 1.088 6.816 1.28 7.072 1.152 7.552 2.048 7.072 2.336 8.096 2.368 7.904 3.2 8.128 2.976 7.776 4.128 7.872 3.904 8.576 4.672 7.968 5.568 8.672 5.632 7.776 5.888 8.64 4.896 5.984 6.272 6.944 6.624 6.912 3.072 3.328 3.776 3.744 5.408 4.704 5.568 4.768 9.056 8.128 6.88 4.992z"  horiz-adv-x="1024" />

    
    <glyph glyph-name="rss" unicode="&#59147;" d="M256 256c-70.656 0-128-57.376-128-128s57.344-128 128-128 128 57.376 128 128-57.344 128-128 128z m0 256s-64-2.016-64-64 64-64 64-64a256 256 0 0 0 256-256s0-64 64-64 64 64 64 64c0 212-171.968 384-384 384z m0 256S192 768 192 704s64-64 64-64c282.752 0 512-229.248 512-512 0 0 0-64 64-64s64 64 64 64C896 481.408 609.504 768 256 768z"  horiz-adv-x="1024" />

    
    <glyph glyph-name="shiliangzhinengduixiang" unicode="&#58890;" d="M512 880.31c-274.883 0-497.83-222.826-497.83-497.83 0-275.005 222.947-497.83 497.83-497.83 275.005 0 497.83 222.947 497.83 497.83 0 275.005-222.826 497.83-497.83 497.83M446.32 134.963c-50.111-50.111-131.725-50.111-181.836 0s-50.111 131.725 0 181.836l128.806 128.806c50.111 50.111 131.725 50.111 181.836 0 1.338-1.338 2.676-2.797 3.892-4.135 0.73-0.608 1.46-1.338 2.189-1.946 2.068-2.068 3.649-4.257 4.987-6.69 0.122-0.243 0.365-0.365 0.487-0.608l-0.122-0.122c6.203-11.676 4.379-26.394-5.473-36.246s-24.812-11.676-36.489-5.352c-0.851-0.851-8.879 7.176-13.136 11.433-26.15 26.15-68.356 26.394-94.628 0.243l-128.806-128.927c-26.15-26.15-26.15-68.599 0-94.749s68.599-26.15 94.749 0l77.721 77.721c27.002-13.258 58.625-13.623 85.871-1.095l-120.048-120.17M759.638 448.16l-128.806-128.806c-50.111-50.111-131.725-50.111-181.836 0-1.338 1.338-2.676 2.797-3.892 4.135-0.73 0.608-1.46 1.338-2.189 1.946-2.068 2.068-3.649 4.257-5.108 6.69-0.122 0.243-0.365 0.365-0.487 0.608l0.122 0.122c-6.203 11.676-4.379 26.394 5.473 36.246 9.852 9.852 24.812 11.676 36.489 5.352 0.851 0.851 8.879-7.176 13.136-11.433 26.15-26.15 68.356-26.394 94.628-0.243l129.049 129.049c26.15 26.15 26.15 68.599 0 94.749-26.15 26.15-68.599 26.15-94.749 0l-77.721-77.721c-26.88 13.136-58.625 13.623-85.871 1.095l120.048 120.048c50.111 50.111 131.725 50.111 181.836 0 49.99-50.111 49.99-131.725-0.122-181.836M759.638 448.16z"  horiz-adv-x="1024" />

    
    <glyph glyph-name="shouye" unicode="&#58927;" d="M872.27671814 390.61857605c-8.8433075-8.8433075-19.46640015-12.38433838-31.85073853-12.38433837-12.38433838 1.77978516-23.00743103 3.54103088-30.08949279 10.62309264-3.54103088 1.76124573-10.62309265 7.06352234-23.00743104 19.44786072-12.38433838 10.60455323-26.54846192 24.75013733-44.25361633 40.65696716a15519.63386536 15519.63386536 0 0 0-56.63795471 51.26152039 1466.43173218 1466.43173218 0 0 1-56.63795471 53.04130554c-17.68661499 15.90682984-33.61198425 30.05241394-46.01486206 42.41821289-12.38433838 12.38433838-21.22764588 19.44786072-24.76867676 22.9888916-15.92536927 12.36579895-30.08949279 19.44786072-46.01486206 19.44786072-14.16412354 0-30.08949279-7.08206177-44.25361633-19.44786072-5.30227661-3.54103088-14.16412354-12.38433838-28.30970764-24.75013732-14.16412354-12.38433838-30.08949279-26.52992248-47.79464722-42.43675232-17.70515442-15.90682984-37.17155456-33.57490539-56.63795471-51.26152039-19.46640015-17.68661499-38.93280029-33.59344482-54.85816956-49.50027466-15.92536927-14.14558411-30.08949279-28.29116821-42.47383117-38.89572143-10.62309265-10.60455323-19.48493958-17.66807557-21.24618531-19.44786073-7.08206177-5.30227661-17.70515442-8.82476807-30.0894928-8.82476806s-23.00743103 3.52249146-31.85073852 10.60455322C144.86369323 403.00291443 141.32266235 413.60746765 141.32266235 425.97326661c0 12.38433838 5.30227661 22.98889161 12.38433838 30.05241393 1.77978516 1.76124573 10.62309265 10.60455323 26.54846192 24.75013733s33.63052368 30.05241394 54.87670898 49.50027466c21.22764588 19.44786072 44.2350769 38.89572143 69.02229309 61.86607361 23.00743103 21.22764588 46.01486206 42.43675232 67.24250794 61.88461303 21.24618531 19.44786072 40.71258545 35.35469055 54.87670898 49.50027466a620.84838867 620.84838867 0 0 1 26.54846192 24.75013734C470.52729797 745.9452667200001 491.75494385 754.78857422 513.00112915 754.78857422c21.22764588 0 38.93280029-7.06352234 54.85816955-21.20910645 1.77978516-3.54103088 8.86184693-8.8433075 17.70515442-17.68661499s19.46640015-19.44786072 33.63052368-31.81365966a942.91534424 942.91534424 0 0 0 46.01486207-42.43675232c17.68661499-15.90682984 33.63052368-31.81365967 51.31713867-47.7204895 17.70515442-15.92536927 35.41030883-31.83219909 51.3356781-47.73902893 17.68661499-15.90682984 31.85073852-30.05241394 46.01486206-42.41821289 14.16412354-14.14558411 26.54846192-24.75013733 35.39176941-33.59344484l17.70515442-17.68661498c10.62309265-8.82476807 15.92536927-19.42932129 15.92536926-31.81365967 0-12.36579895-3.54103088-21.20910645-10.62309265-30.05241394z m-486.71562195 91.91848755c12.38433838 12.38433838 26.54846192 22.98889161 37.17155457 33.59344482 10.62309265 10.60455323 21.24618531 19.44786072 28.30970764 26.51138306l14.16412353 14.1455841c12.38433838 10.60455323 26.54846192 17.68661499 44.25361633 17.68661499 15.92536927 0 31.85073852-5.30227661 46.01486207-17.68661499 1.76124573-1.76124573 7.08206177-5.30227661 14.16412353-12.36579894l28.30970765-24.75013734c10.62309265-10.60455323 23.00743103-21.20910645 37.17155456-33.59344482 12.38433838-14.14558411 26.54846192-26.51138305 40.71258545-38.89572143a15218.64624023 15218.64624023 0 0 0 111.49612426-100.76179505v-274.01275634c0-10.60455323-3.54103088-19.44786072-12.38433838-28.27262879-8.86184693-7.08206177-19.48493958-12.38433838-33.63052367-12.38433837H604.80838013v129.77600097c0 38.89572143-33.4451294 74.15771484-74.15771485 74.15771484h-37.07885742c-40.71258545 0-74.15771484-35.26199341-74.15771484-74.15771484v-129.77600097H281.14703369c-14.16412354 0-24.78721619 1.76124573-33.63052368 8.84330748-8.8433075 5.30227661-12.38433838 14.14558411-12.38433838 26.51138307V346.420578a14139.03968811 14139.03968811 0 0 0 109.71633911 99.00054932c12.40287781 12.36579895 26.54846192 24.75013733 40.71258545 37.11593628z"  horiz-adv-x="1024" />

    
    <glyph glyph-name="weibo" unicode="&#58886;" d="M604.40523235 532.2136586500001q0-36.59920744-26.05855868-62.42315606t-62.18934669-25.82394863q-27.46381859 0-50.7695103 15.98633017-28.34220632-30.62665388-52.5855376-66.81509311Q299.78416942 223.4344688 320.396246 0.1519180300000471q0.46842023-10.07222853-5.73874423-17.62620015T298.84732976-25.965093389999993h-2.28364765q-9.13538885 0-15.98633015 6.1487117t-7.78858169 15.3417526q-6.38252106 57.62205223-1.58061652 113.2527197t13.46807244 99.25697441 24.71175234 85.08426937 31.56269283 71.1485774 33.84633964 57.21128484q27.93303955 41.16730265 60.37411931 75.48206173-7.31936074 15.98713088-7.31936073 35.25240028 0 36.59920744 25.82394861 62.42395758t62.42395676 25.82314789 62.42235534-25.82314789 25.82474934-62.42395758z m174.32826791-5.03651464q0-72.26077451-35.66236779-133.57093275t-97.20713691-96.97332755-133.80554282-35.66156705q-29.279046 0-59.90489915 6.38252185-9.60380911 2.28364682-14.87413307 10.77525885t-2.98667714 18.09461958q2.28364682 9.13458813 10.54064796 14.40491291t17.86081101 3.45509738q23.3056909-5.97335428 49.42270233-5.97335509 44.38778914 0 85.08587162 17.39159008t69.97712688 46.67143677 46.67063604 69.97712686 17.39159007 85.08587162-17.39159007 85.08507011-46.67063604 69.97712766-69.97712688 46.67143678-85.08587162 17.39158926-85.08507011-17.39158926-69.97712766-46.67143678-46.67143677-69.97712766-17.39158927-85.08507011q0-52.17557011 23.77491185-99.72539381 4.56729446-9.13458813 1.58061652-18.2699778t-11.65284586-13.70268252T288.59974382 394.19153537t-13.93729341 11.88745593q-29.279046 56.27444434-29.27904599 121.21585811 0 54.45921695 21.25665416 103.82426885T323.61753402 716.20418837t85.08507011 56.74286459T512.11690468 793.96989774q72.26157522 0 133.80634434-35.66236779t97.20713692-97.2071369 35.66156706-133.80554364z"  horiz-adv-x="1024" />

    
    <glyph glyph-name="icon" unicode="&#58882;" d="M371.956 285.028c28.954-28.953 68.953-46.861 113.135-46.861 88.366 0 160 71.634 160 160 0 44.184-17.909 84.185-46.865 113.139-28.954 28.953-68.953 46.861-113.135 46.861-88.366 0-160-71.634-160-160 0-44.184 17.909-84.185 46.865-113.139zM512 896c-281.6 0-512-230.4-512-512s230.4-512 512-512 512 230.4 512 512-230.4 512-512 512zM665.6 268.8l115.2-115.2c12.8-12.8 12.8-32 0-44.8s-32-12.8-44.8 0l-115.2 115.2c-89.6-70.4-217.6-64-294.4 19.2-89.6 89.6-89.6 230.4 0 313.6s230.4 83.2 313.6-0c83.2-83.2 89.6-204.8 25.6-288z"  horiz-adv-x="1024" />

    
    <glyph glyph-name="suo" unicode="&#58923;" d="M780.16-128H243.84a170.88 170.88 0 0 0-170.688 170.688V359.616A170.88 170.88 0 0 0 243.84 530.304h536.384a170.816 170.816 0 0 0 170.624-170.688v-316.928A170.88 170.88 0 0 0 780.16-128zM243.84 481.536a121.984 121.984 0 0 1-121.92-121.92v-316.928c0-67.264 54.656-121.984 121.92-121.984h536.384c67.2 0 121.856 54.72 121.856 121.984V359.616a121.984 121.984 0 0 1-121.856 121.92H243.84zM243.84 481.536a24.32 24.32 0 0 0-24.384 24.384V627.84C219.456 777.28 343.68 894.528 502.912 896h3.008c156.608-1.472 274.304-116.288 274.304-268.16v-48.768a24.32 24.32 0 0 0-48.768 0V627.84c0 124.608-97.536 218.688-227.072 219.456C371.84 846.528 268.16 750.4 268.16 627.84v-121.92a24.32 24.32 0 0 0-24.32-24.384zM512 91.456a146.432 146.432 0 0 0-146.304 146.24A146.496 146.496 0 0 0 512 384a146.496 146.496 0 0 0 146.304-146.304A146.496 146.496 0 0 0 512 91.456z m0 243.776c-53.76 0-97.536-43.776-97.536-97.536S458.176 140.096 512 140.096c53.76 0 97.536 43.776 97.536 97.536S565.696 335.232 512 335.232zM512-6.144a24.448 24.448 0 0 0-24.384 24.448v73.152c0 13.44 10.944 24.448 24.384 24.448s24.384-11.008 24.384-24.448v-73.152a24.448 24.448 0 0 0-24.384-24.448z"  horiz-adv-x="1024" />

    
    <glyph glyph-name="zixun2" unicode="&#58897;" d="M517.9259262500001 117.33333375000007h11.8518515625c47.4074071875 5.92592625 82.9629628125 35.555555625 100.740740625 82.9629628125 0 5.92592625 0 5.92592625-5.92592625 5.9259253124999995h-5.9259253124999995s-17.7777778125-29.629629375-88.8888890625-41.4814809375h-29.629629375c-47.4074071875 0-71.11111125 17.7777778125-71.11111125 17.7777778125h-5.92592625s-5.92592625-5.92592625 0-5.92592625c11.8518515625-41.481481875 53.3333334375-59.2592596875 94.8148153125-59.25925875z m379.259259375 432.592591875s-5.92592625 0 0 0C849.7777775 733.6296299999999 695.7037034374999 864 506.07407375 864c-195.5555559375 0-355.55555531249996-142.2222225-391.1111109375-325.9259259375-35.555555625-5.92592625-59.2592596875-35.555555625-59.25925875-71.11111125v-148.14814781249999c0-41.481481875 35.555555625-77.0370375 77.03703656249999-77.0370375 23.703704062499998 0 41.481481875 11.8518515625 59.2592596875 29.6296303125 35.555555625-88.8888890625 100.740740625-154.0740740625 183.7037034375-195.5555559375 0 0 0 5.92592625 5.92592625 5.92592625 0 0 0 5.92592625 5.9259253124999995 5.9259253124999995H393.4814815625c-35.555555625 11.8518515625-106.666666875 82.9629628125-118.5185184375 189.6296296875-5.92592625 47.4074071875 29.629629375 88.8888890625 65.18518499999999 100.740740625l195.5555559375 35.555555625c41.481481875 5.92592625 71.11111125 29.629629375 88.888888125 65.18518499999999 0 11.8518515625 5.92592625 29.629629375 11.8518525 53.3333334375 0 5.92592625 5.92592625 5.92592625 5.9259253124999995 5.92592625s5.92592625 0 5.92592625-5.92592625c23.703704062499998-35.555555625 77.0370375-118.5185184375 82.9629628125-207.4074075 5.92592625-100.740740625 5.92592625-165.925925625-71.11111125-237.037036875v-11.8518515625h5.92592625c77.0370375 41.481481875 136.29629624999998 112.5925921875 160.0000003125 195.5555559375 11.8518515625-17.7777778125 29.629629375-29.629629375 47.4074071875-29.6296303125-29.629629375-142.2222225-160.0000003125-237.037036875-319.9999996875-248.8888884375-11.8518515625 23.703704062499998-35.555555625 41.481481875-59.2592596875 41.4814809375-35.555555625 0-65.18518499999999-29.629629375-65.18518499999999-65.18518499999999 0-35.555555625 29.629629375-65.18518499999999 65.18518499999999-65.18518499999999 29.629629375 0 53.3333334375 17.7777778125 65.18518499999999 47.4074071875 183.7037034375 17.7777778125 331.85185218749996 124.44444468750001 367.40740781249997 296.2962965625 29.629629375 11.8518515625 47.4074071875 35.555555625 47.4074071875 71.11111125V478.814814375c-5.92592625 41.481481875-35.555555625 71.11111125-77.03703656249999 71.11111125z m-71.11111125-41.4814809375c-47.4074071875 130.37036999999998-171.851851875 225.1851853125-320.000000625 225.1851853125-148.14814781249999 0-272.59259249999997-94.814814375-319.9999996875-225.1851853125 0 5.92592625-5.92592625 5.92592625-5.92592625 5.9259253124999995 29.629629375 160.0000003125 165.925925625 278.51851875 331.85185218749996 278.51851875s302.222221875-118.5185184375 325.9259259375-278.51851875c-5.92592625 5.92592625-11.8518515625 0-11.8518515625-5.9259253124999995z m-456.296296875-432.5925928125z"  horiz-adv-x="1024" />

    
    <glyph glyph-name="weibo1" unicode="&#59002;" d="M867.34184213 648.8088888899999c-54.31977175 61.10974359-135.79942987 83.74298239-208.22579286 67.89971544-18.10659025-4.52664756-27.15988638-20.36991452-24.89656209-38.4765058 4.52664756-18.10659025 20.36991452-27.15988638 38.47650478-24.89656207 52.05644846 11.31661941 110.90286776-4.52664756 149.37937355-47.52980091 38.47650478-43.00315334 49.79312418-101.84957265 31.68653394-153.90602012-2.26332427-9.05329513-2.26332427-15.84326696 2.26332328-24.89656209 4.52664756-6.78997184 11.31661941-13.57994269 18.10659125-15.84326696 15.84326696-4.52664756 33.94985721 4.52664756 40.73982906 20.36991452 20.36991452 74.68968628 6.78997184 156.16934439-47.52980091 217.27908799zM770.01891705 449.63639115c13.57994269-4.52664756 29.42320965 2.26332427 33.94985821 18.10659124 11.31661941 36.2131815 4.52664756 74.68968628-22.6332388 104.11289594-27.15988638 29.42320965-65.63639115 40.73982907-101.84957265 33.94985722-15.84326696-2.26332427-24.89656209-18.10659025-20.36991454-31.68653296 2.26332427-15.84326696 18.10659025-24.89656209 31.68653394-20.36991451 18.10659025 4.52664756 36.2131815-2.26332427 49.79312418-15.84326696 13.57994269-13.57994269 15.84326696-33.94985721 11.31661941-52.05644847-4.52664756-15.84326696 4.52664756-31.68653394 18.10659025-36.2131815zM715.69914529 397.57994269c-11.31661941 4.52664756-20.36991452 6.78997184-13.57994268 20.36991452 13.57994269 33.94985721 13.57994269 63.37306787 0 83.74298241-27.15988638 38.47650478-101.84957265 36.2131815-185.59255505 0 0 0-27.15988638-11.31661941-20.36991452 9.05329512 13.57994269 43.00315334 11.31661941 76.95301056-9.05329513 97.3229251-45.26647663 45.26647663-167.48596381-2.26332427-271.59886073-106.37622022C138.55156663 422.47650478 93.28509 340.99684665999996 93.28509 268.57048466000003c0-138.06275414 176.53925894-221.80573555 348.55187128-221.80573655 226.33238411 0 375.71175667 131.27278231 375.71175667 235.38567924 0 63.37306787-54.31977175 99.58624838-101.84957266 115.42951534zM441.83696128 96.55787229999999c-138.06275414-13.57994269-255.75559377 49.79312418-264.80888888 138.06275414-9.05329513 90.53295325 95.05960081 174.27593564 233.12235495 187.85587834 138.06275414 13.57994269 255.75559377-49.79312418 264.8088889-138.06275316 9.05329513-90.53295325-95.05960081-174.27593564-233.12235497-187.85587932zM455.41690397 354.57679035c-65.63639115 18.10659025-140.32607743-15.84326696-167.48596381-72.426363-29.42320965-58.84641932 0-124.48281145 65.63639116-144.85272599 67.89971543-22.63323881 149.37937356 11.31661941 176.53925893 74.68968728 27.15988638 61.10974359-6.78997184 124.48281145-74.68968628 142.58940171z m-49.79312418-151.64269685c-13.57994269-20.36991452-40.73982907-31.68653394-63.37306787-20.36991452-20.36991452 9.05329513-27.15988638 33.94985721-13.57994269 54.31977175 13.57994269 20.36991452 40.73982907 29.42320965 61.10974359 20.36991453 22.63323881-6.78997184 29.42320965-31.68653394 15.84326697-54.31977176z"  horiz-adv-x="1024" />

    
    <glyph glyph-name="yinhao1" unicode="&#58951;" d="M1086.17982216 871.11111111c176.63999999 0 319.99999969-153.6 319.99999968-342.88000031C1406.17982185 528.2311108 1423.37982216-20.32888858000001 766.17982247-88.88888888999998l0 68.56000031s274.39999969 32.23999969 396.48 216.72c-24.64000031-6.55999969-49.99999969-10.96000031-76.48000031-10.96000031-176.80000031 0-319.99999969 153.52000031-319.99999969 342.79999969C766.17982247 717.5911108 909.45982247 871.11111111 1086.17982216 871.11111111z m-720 0c176.63999999 0 319.99999969-153.6 319.99999968-342.88000031 0 0 17.28-548.56000032-639.99999937-617.11999969l0 68.56000031s274.39999969 32.23999969 396.48 216.72c-24.64000031-6.55999969-49.99999969-10.96000031-76.48000031-10.96000031-176.80000031 0-319.99999969 153.52000031-319.99999969 342.79999969C46.17982247 717.5911108 189.45982247 871.11111111 366.17982216 871.11111111z"  horiz-adv-x="1450" />

    
    <glyph glyph-name="dianxuan" unicode="&#58906;" d="M512.853333-126.83946700000001c-281.980587 0-510.5664 228.58752-510.5664 510.5664S230.872747 894.293333 512.853333 894.293333s510.5664-228.58752 510.5664-510.5664S794.83392-126.83946700000001 512.853333-126.83946700000001z m0 60.06784c248.80128 0 450.49856 201.69728 450.49856 450.49856 0 248.80128-201.69728 450.49856-450.49856 450.49856S62.354773 632.528213 62.354773 383.72693300000003c0-248.80128 201.69728-450.49856 450.49856-450.49856z m0 0M512.56664008 383.81867489m-238.69835387 0a238.69835387 238.69835387 0 1 1 477.39670837 0 238.69835387 238.69835387 0 1 1-477.39670837 0Z"  horiz-adv-x="1024" />

    
    <glyph glyph-name="dianxuan-weixuan" unicode="&#58907;" d="M512.853333-126.83946700000001c-281.980587 0-510.5664 228.58752-510.5664 510.5664S230.872747 894.293333 512.853333 894.293333s510.5664-228.58752 510.5664-510.5664S794.83392-126.83946700000001 512.853333-126.83946700000001z m0 60.06784c248.80128 0 450.49856 201.69728 450.49856 450.49856 0 248.80128-201.69728 450.49856-450.49856 450.49856S62.354773 632.528213 62.354773 383.72693300000003c0-248.80128 201.69728-450.49856 450.49856-450.49856z m0 0"  horiz-adv-x="1024" />

    
    <glyph glyph-name="picker-computer" unicode="&#58899;" d="M904.000512 747.999232h-784c-30.625792 0-56.000512-24.496128-56.000512-56.000512v-476.000256c0-30.624768 25.37472-56.000512 56.000512-56.000512h364.000256v-83.999744H344.000512c-35.87584 0-35.87584-56.000512 0-56.000512h336c35.87584 0 35.87584 56.000512 0 56.000512H540.000256v83.999744h364.000256c30.625792 0 56.000512 25.37472 56.000512 56.000512V691.999744c-0.001024 31.50336-25.375744 55.999488-56.000512 55.999488z m0-531.999744h-784V691.999744h784v-476.000256z"  horiz-adv-x="1024" />

    
    <glyph glyph-name="yinhao2" unicode="&#58928;" d="M776 415H577V797h382v-339q18-321-322-487l-86 131q217 113 225 313z m-487 0H90V797h382v-339q18-321-322-487L64 102q226 122 226 313z"  horiz-adv-x="1024" />

    
    <glyph glyph-name="chakan" unicode="&#59138;" d="M512 896C227.06087 896 0 668.93913 0 384S227.06087-128 512-128C792.486957-128 1024 103.513043 1024 384S792.486957 896 512 896zM783.582609 125.773913c-8.904348-8.904348-17.808696-8.904348-26.713044-8.904348-8.904348 0-17.808696 4.452174-26.713043 8.904348l-115.756522 115.756522c-40.069565-31.165217-84.591304-44.521739-133.565217-44.521739-57.878261 0-111.304348 22.26087-151.373913 62.330434-40.069565 40.069565-62.330435 93.495652-62.330435 151.373913 0 57.878261 22.26087 111.304348 62.330435 151.373914 40.069565 44.521739 97.947826 66.782609 155.826087 66.782608 57.878261 0 111.304348-22.26087 151.373913-62.330435 40.069565-40.069565 62.330435-93.495652 62.330434-151.373913 0-40.069565-13.356522-84.591304-35.617391-115.756521l115.756522-115.756522c17.808696-22.26087 17.808696-44.521739 4.452174-57.878261z m-298.295652 142.469565c40.069565 0 75.686957 13.356522 102.4 40.069565 26.713043 26.713043 44.521739 62.330435 44.521739 102.4 0 40.069565-13.356522 75.686957-44.521739 102.4-26.713043 26.713043-62.330435 40.069565-102.4 40.069566-40.069565 4.452174-75.686957-13.356522-102.4-40.069566s-44.521739-62.330435-44.52174-102.4c0-40.069565 13.356522-75.686957 44.52174-102.4 26.713043-26.713043 62.330435-40.069565 102.4-40.069565z"  horiz-adv-x="1024" />

    
    <glyph glyph-name="icon--1" unicode="&#59160;" d="M627.2 407.04l-197.12 197.12c-10.24 10.24-25.6 10.24-35.84 0-10.24-10.24-10.24-25.6 0-35.84l181.76-181.76-181.76-181.76c-10.24-10.24-10.24-25.6 0-35.84 10.24-10.24 25.6-10.24 35.84 0l197.12 197.12c5.12 5.12 7.68 15.36 7.68 23.04 2.56 2.56 0 10.24-7.68 17.92zM512 793.6C286.72 793.6 102.4 609.28 102.4 384s184.32-409.6 409.6-409.6 409.6 184.32 409.6 409.6S737.28 793.6 512 793.6z m0-768c-197.12 0-358.4 161.28-358.4 358.4S314.88 742.4 512 742.4s358.4-161.28 358.4-358.4-161.28-358.4-358.4-358.4z"  horiz-adv-x="1024" />

    
    <glyph glyph-name="icon--2" unicode="&#59161;" d="M693.76 499.2L512 317.44l-181.76 181.76c-10.24 10.24-25.6 10.24-35.84 0-10.24-10.24-10.24-25.6 0-35.84l197.12-197.12c5.12-5.12 15.36-7.68 23.04-7.68 7.68-2.56 15.36 0 23.04 7.68l197.12 197.12c10.24 10.24 10.24 25.6 0 35.84-15.36 10.24-30.72 10.24-40.96 0zM512 793.6C286.72 793.6 102.4 609.28 102.4 384s184.32-409.6 409.6-409.6 409.6 184.32 409.6 409.6S737.28 793.6 512 793.6z m0-768c-197.12 0-358.4 161.28-358.4 358.4S314.88 742.4 512 742.4s358.4-161.28 358.4-358.4-161.28-358.4-358.4-358.4z"  horiz-adv-x="1024" />

    
    <glyph glyph-name="zan" unicode="&#59171;" d="M874.12502502 481.41475006H650.33094512C737.01574063 800.95870213 590.84137957 817.38915356 590.84137957 817.38915356c-61.75583471 0-49.29135431-49.29135431-53.82389263-57.22329638 0-156.37257229-166.00421623-278.75110712-166.00421622-278.75110712v-443.62218876c0-43.62568138 59.48956555-59.48956555 83.28539175-59.48956554h335.40783621c31.72776829 0 57.22329638 82.71882447 57.22329637 82.71882447 83.28539175 282.71707815 83.28539175 366.5690372 83.28539177 366.5690372 0 58.92299825-56.09016179 53.82389264-56.0901618 53.82389263z m-594.89565544 0H145.51948893c-27.76179725 0-28.32836455-27.19522997-28.32836453-27.19522996l27.76179725-447.5881598c0-28.32836455 28.32836455-28.32836455 28.32836454-28.32836454h115.57972734c24.36239351 0 23.79582622 18.69672059 23.79582622 18.69672059V447.42071261c0.5665673 34.56060474-33.42747016 33.99403746-33.42747017 33.99403745z"  horiz-adv-x="1024" />

    
    <glyph glyph-name="zixun1" unicode="&#58932;" d="M883.529 333.923c0.208 8.453 0.233 17.052 0.057 25.67 2.3 116.595-32.398 214.881-100.36 284.253-32.417 33.082-71.84 58.473-117.018 75.77-7.01 62.983-75.41 112.568-158.493 112.568-83.078 0-151.474-49.585-158.487-112.567-45.172-17.297-84.593-42.69-117.004-75.77-67.982-69.376-102.696-167.464-100.38-283.708-0.204-10.986-0.136-21.299 0.204-31.377-17.615-17.73-31.414-44.508-21.33-82.084 7.495-27.927 28.153-48.846 53.501-58.006a85.044 85.044 0 0 1 44.197-12.674c32.322-141.305 149.643-237.232 302.844-237.232 152.921 0 270.272 96.168 302.406 237.554 0.988-0.215 2.019-0.339 3.07-0.339 20.183 0 38.748 7.05 53.391 18.787 19.14 10.86 34.11 29.035 40.247 51.91 11.118 41.419-6.79 69.725-26.845 87.245M374.037 502.497c2.435-4.072 60.822-100.344 170.822-142.073 30.35-11.515 61.444-18.1 91.517-24.464 60.316-12.778 117.3-24.847 156.121-75.249 0.405-0.524 0.856-1.01 1.32-1.465l-0.063-2.547c0-18.79-1.417-36.948-4.154-54.398-49.907-79.74-132.715-131.994-235.299-143.25-7.644 10.093-23.217 17.048-41.307 17.048-25.653 0-46.472-13.888-46.472-30.974 0-17.127 20.82-30.983 46.472-30.983 22.996 0 41.94 11.19 45.627 25.826 33.083 3.801 64.63 11.704 94.204 23.65 42.244 17.058 79.473 41.91 110.636 73.87 4.99 5.107 9.78 10.398 14.411 15.827C740.73 40.19 641.437-32.533 511.808-32.544c-0.234 0.012-0.87 0.012-1.101 0.012-166.329 0-282.496 118.936-282.496 289.5l-0.313 16.231c-0.204 6.956 0.872 26.493 2.032 45.229 90.674 32.078 128.323 124.244 129.97 128.387l14.137 55.682m59.806-258.454c0-29.697-24.078-53.776-53.776-53.776-29.697 0-53.774 24.08-53.774 53.776 0 29.697 24.078 53.773 53.774 53.773 29.699 0 53.776-24.078 53.776-53.773m250.407 0c0-29.225-23.688-52.919-52.915-52.919-29.222 0-52.91 23.695-52.91 52.92 0 29.222 23.69 52.914 52.91 52.914 29.227-0.001 52.915-23.693 52.915-52.915m0 0z"  horiz-adv-x="1024" />

    
    <glyph glyph-name="dashang" unicode="&#58881;" d="M466.94688457 374.46860284c-1.31513049-20.90133794 9.11794477-33.97347102 31.33881162-39.17241493V421.47901948c-19.58620746-1.31513049-30.05447015-16.9867355-31.33881162-47.01041664zM639.59844563 673.47385393l93.61617777 100.42494694s-71.25456116-21.33678248-112.89889358-21.33678248c-41.69271514 0-107.67355909 20.72540075-107.67355909 20.72540074s-71.20178-20.72540075-112.87250298-20.72540074c-41.69271514 0-109.45932154 20.07003473-109.45932155 20.07003472l91.21903357-99.15819918h258.06906586zM642.74332287 636.69858319H374.16201002S128.98474161 483.48368298 128.98474161 245.75735449c0-237.72193006 310.36639502-244.56148825 310.36639502-244.56148824s75.74095946-4.10373492 140.23513416 0c0-2.05406666 313.09342142 28.28190298 313.089023 240.16305854 0 211.84596813-249.93197092 395.3396584-249.93197092 395.3396584z m-117.0334175-512.94047332v-19.58620746h-27.42420918v19.58620746c-75.74535789 1.28434147-113.60264233 37.21511371-113.60264232 107.72634024h72.47292618c0-35.25781249 13.70990537-54.19745077 41.13411458-56.80132116v90.097434c-78.34922827 13.03694563-114.9177728 48.29035969-109.6880399 105.76903902 5.20334234 56.12836142 41.77628531 89.42447425 109.6880399 99.89273695v23.50520832h27.42420918v-23.50520832c70.51122654-7.8336033 105.76903902-41.13411456 105.76903902-99.89273695h-72.47292618c-2.63905782 31.33881162-13.70990537 48.29035969-33.29611284 50.92501908v-94.01643486c75.71017045-14.38726355 113.60264233-48.3211487 113.60264232-101.85003816-6.55805868-61.39328178-44.41094469-95.33156535-113.60704076-101.85003816zM525.70990537 258.90865928999995v-84.22113191c22.18567942 2.60387038 33.93828357 16.31377577 35.2578125 41.13411456 0 20.8661505-11.75260416 35.24901563-35.2578125 43.08701735z"  horiz-adv-x="1024" />

    
    <glyph glyph-name="creditcard" unicode="&#58884;" d="M751.232 124.86400000000003H272.768a79.712 79.712 0 0 0-79.712 79.712V563.424a79.712 79.712 0 0 0 79.712 79.712h478.464a79.712 79.712 0 0 0 79.712-79.712v-358.88a79.616 79.616 0 0 0-79.712-79.68M272.768 164.67200000000003h478.464c22.016 0 39.904 17.856 39.904 39.904v279.072H232.96v-279.072c0-22.048 17.856-39.904 39.808-39.904M751.232 603.232H272.768c-22.016 0-39.904-17.856-39.904-39.904v-39.904H791.04v39.968a39.68 39.68 0 0 1-39.808 39.84M292.768 364.06399999999996h199.296a19.936 19.936 0 0 0 0-39.808H292.768a19.84 19.84 0 0 0-19.904 19.904 19.84 19.84 0 0 0 19.904 19.904m0-79.712h159.488a19.936 19.936 0 0 0 0-39.808H292.768a19.84 19.84 0 0 0-19.904 19.904 19.808 19.808 0 0 0 19.904 19.904m279.072 79.712h39.904a19.936 19.936 0 0 0 0-39.808H571.84a19.904 19.904 0 0 0 0 39.808m0 0z"  horiz-adv-x="1024" />

    
    <glyph glyph-name="touxiang" unicode="&#60167;" d="M512 830.48898605c-253.44538277 0-458.90110727-205.45572449-458.90110727-458.90110727s205.45572449-458.90110727 458.90110727-458.90110727 458.90110727 205.45572449 458.90110727 458.90110727-205.45572449 458.90110727-458.90110727 458.90110727zM299.34582677 18.713922769999954c-3.14932133 14.54686517-4.79896583 29.54363337-4.79896585 44.99030461 0 83.68196661 47.38978756 156.26632477 116.67485669 192.55850384 30.59340716-14.39689749 64.78603867-22.64512 100.92825008-22.64511998 36.14221139 0 70.18487523 8.24822252 100.92825005 22.64511998 69.28506915-36.44214675 116.67485668-108.87653721 116.67485669-192.55850384 0-15.44667125-1.64964451-30.44343946-4.79896583-44.99030461-62.0866204-37.49192054-134.82094621-59.08726675-212.80414091-59.08726675s-150.71752053 21.59534622-212.80414092 59.08726675z m22.79508768 452.90239998c0 104.8274098 85.03167576 189.85908555 189.85908555 189.85908556 104.8274098 0 189.85908555-85.03167576 189.85908555-189.85908556 0-104.8274098-85.03167576-189.85908555-189.85908555-189.85908556-104.8274098 0-189.85908555 84.88170808-189.85908555 189.85908556z m461.75049323-409.56173985v1.64964448c0 93.72980131-47.38978756 176.36199417-119.52424266 225.25145857 52.18875337 43.6405955 85.4815788 109.17647257 85.48157881 182.6606368 0 131.37168954-106.4770543 237.84874383-237.84874383 237.84874383s-237.84874383-106.4770543-237.84874383-237.84874383c0-73.33419655 33.29282543-139.02004133 85.48157881-182.6606368-72.13445509-48.88946437-119.52424265-131.52165721-119.52424266-225.25145857v-1.64964448c-85.93148186 75.4337441-140.06981509 186.25986118-140.06981508 309.53329588 0 227.50097377 184.46024901 411.96122276 411.96122276 411.96122275s411.96122276-184.46024901 411.96122276-411.96122275c0-123.42340238-54.13833325-234.09955177-140.06981508-309.53329588z"  horiz-adv-x="1024" />

    
    <glyph glyph-name="rocket" unicode="&#58989;" d="M778.30847978 457.97861893a501.04692945 501.04692945 0 0 1-67.06812847 249.06862463 503.52015762 503.52015762 0 0 1-182.94614222 182.29146417h-1.16387209c-9.09275061 4.58274631-20.44050336 5.67387638-29.53325396 0A497.99176525 497.99176525 0 0 1 313.41432674 707.04724356a489.55369268 489.55369268 0 0 1-67.06812847-249.06862463v-9.0927506c-26.18712175-14.69388498-50.04649935-37.3893905-65.97699841-63.43102823-20.36776137-28.29663988-31.78825613-64.52215831-31.78825612-104.16655095a189.12921263 189.12921263 0 0 1 37.5348745-114.35043165c23.85937759-32.80664418 57.90263587-57.75715186 96.60138245-71.28716475a22.25905349 22.25905349 0 0 1 9.09275062-1.16387208c15.85775707 0 30.69712605 12.43888284 30.69712603 28.2966399 0 16.94888714 4.5100043 32.80664418 10.18388069 46.40939909l3.41887423 6.83774846c4.58274631-6.83774846 9.09275061-13.60275491 14.76662698-20.36776137 13.67549691-18.18550122 28.3693819-35.13438834 45.46375304-50.99214541 5.67387638-6.76500645 13.67549691-10.18388068 22.76824752-10.18388067h187.52888851a29.24228595 29.24228595 0 0 1 20.44050338 7.92887853c17.02162913 15.85775707 32.9521282 33.97051627 47.71875518 53.17440555 4.58274631 6.83774846 9.09275061 13.60275491 14.76662699 19.27663129l2.32774416-6.76500645c5.67387638-14.76662698 9.09275061-30.55164204 10.18388068-46.48214111 0-2.18226014 1.16387207-5.60113437 1.16387206-7.92887853a30.76986805 30.76986805 0 0 1 37.53487452-19.20388928 200.47696539 200.47696539 0 0 1 97.69251251 71.28716476c22.76824752 31.71551411 36.37100242 70.26877669 37.53487451 112.16817149v2.18226015c0 38.55326257-11.34775276 75.94265307-31.86099812 106.4942951a199.45857732 199.45857732 0 0 1-66.99538648 63.43102825v5.60113436l1.09113007 2.32774415z m-206.87826181-423.50395226v-62.26715616c0-10.18388068 8.00162053-18.18550122 18.18550121-18.18550122 10.25662268 0 18.18550122 8.00162053 18.18550121 18.18550122v62.26715616c0 10.18388068-7.92887853 16.94888714-18.18550121 18.11275921-10.18388068 0-18.18550122-8.00162053-18.18550121-18.18550122z m23.93211959 435.9428351a118.2784999 118.2784999 0 0 0-165.99725507 0c-45.46375303 45.24552702-46.5548831 120.02430801 0 165.26983504a118.64220992 118.64220992 0 0 0 167.08838515 0c44.37262297-45.24552702 44.37262297-120.02430801-1.09113008-165.26983504z m-143.30174956-498.28273326v62.33989816c0 10.18388068-7.92887853 18.11275921-18.18550122 18.11275921a18.62195325 18.62195325 0 0 1-18.1855012-18.18550122v-62.19441415c0-9.09275061 8.00162053-17.02162913 18.1855012-17.02162913 10.25662268-1.09113007 18.18550122 6.83774846 18.18550122 17.02162913z m60.30312203 79.28878529c-10.18388068 0-18.18550122-7.92887853-18.18550122-18.11275921v-141.55594146c0-9.0200086 8.00162053-16.94888714 18.18550122-16.94888711s18.18550122 7.92887853 18.1855012 18.1855012v141.48319945c-1.16387207 10.18388068-9.09275061 18.11275921-18.1855012 16.94888713z"  horiz-adv-x="1024" />

    
    <glyph glyph-name="shijian" unicode="&#58924;" d="M512.384-57.86c-246.953 0-447.139 200.2-447.139 447.14 0 246.943 200.186 447.138 447.139 447.138 246.944 0 447.138-200.195 447.138-447.139 0-246.94-200.194-447.139-447.138-447.139z m0 843.607c-218.962 0-396.468-177.502-396.468-396.468 0-218.962 177.506-396.467 396.468-396.467S908.85 170.317 908.85 389.279 731.346 785.747 512.384 785.747z m229.041-508.58c-6.158-13.193-21.88-18.86-35.073-12.678l-210.116 70.244c-10.05 4.693-15.645 14.9-15.08 25.334-0.127 1.056-0.612 1.933-0.612 3.02V653.342c0 14.586 11.8 26.39 26.386 26.39 14.585 0 26.385-11.804 26.385-26.39v-275.727l195.409-65.35c13.217-6.184 18.885-21.88 12.701-35.098z"  horiz-adv-x="1024" />

    
    <glyph glyph-name="zhifu" unicode="&#58964;" d="M757.76 117.76H266.24a81.92 81.92 0 0 0-81.92 81.92V568.32a81.92 81.92 0 0 0 81.92 81.92h491.52a81.92 81.92 0 0 0 81.92-81.92v-368.64a81.79712 81.79712 0 0 0-81.7152-81.92H757.76m-491.52 40.96h491.52a40.96 40.96 0 0 1 40.96 40.96V486.4H225.28v-286.72a40.96 40.96 0 0 1 40.96-40.96m491.52 450.56H266.24a40.96 40.96 0 0 1-40.96-40.96v-40.96h573.44v40.96a40.7552 40.7552 0 0 1-40.59136 40.96H757.76M286.72 363.52h204.8a20.48 20.48 0 0 0 0-40.96H286.72a20.48 20.48 0 0 0-20.48 20.48 20.48 20.48 0 0 0 20.48 20.48m0-81.92h163.84a20.48 20.48 0 0 0 0-40.96h-163.84a20.48 20.48 0 0 0-20.48 20.48 20.35712 20.35712 0 0 0 20.25472 20.48H286.72m286.72 81.92h40.96a20.48 20.48 0 0 0 0-40.96h-40.96a20.48 20.48 0 0 0 0 40.96z"  horiz-adv-x="1024" />

    
    <glyph glyph-name="-erweima" unicode="&#58883;" d="M119.86644154 758.7955955v-364.24850541h364.24850541V758.7955955H119.86644154z m291.63117978-291.05024117H193.06470579V685.59733126h218.43291553v-217.85197693zM348.75625195 529.9057851H255.22513654V623.43690051h93.53111541v-93.53111541zM119.86644154 343.42449286v-364.24850541h364.24850541V343.42449286H119.86644154z m291.63117978-291.05024119H193.06470579v218.43291551h218.43291553v-218.43291551z m-62.74136937 62.16043074H255.22513654v93.53111542h93.53111541v-93.53111542z m278.85053048 138.26338801h-90.6264224V343.42449286h90.6264224v-90.62642244z m90.62642239-91.207361h-90.62642239v90.62642243h90.62642239v-90.62642243z m182.41472202 91.207361h-90.62642242V343.42449286h90.62642242v-90.62642244z m-91.78829962-273.04114441h-90.6264224V70.38334842999996h90.6264224v-90.62642242z m-181.25284479 91.20736103h-90.6264224v90.62642238h90.6264224v-90.62642238z m273.04114441 0h-182.41472202v90.62642238h182.41472202v-90.62642238zM536.39942141 758.7955955v-364.24850541h364.24850543V758.7955955h-364.24850543z m291.05024117-291.05024117h-218.43291553V685.59733126h218.43291553v-217.85197693z m-62.16043076 62.16043077h-93.53111542V623.43690051h93.53111542v-93.53111541z"  horiz-adv-x="1024" />

    
    <glyph glyph-name="zhanghao" unicode="&#59062;" d="M512 320a272 272 0 0 0-192.333 464.333 272 272 0 1 0 384.666-384.666A270.22 270.22 0 0 0 512 320z m0 480c-114.692 0-208-93.308-208-208s93.308-208 208-208 208 93.308 208 208S626.692 800 512 800zM928-96a32 32 0 0 0-32 32 384 384 0 1 1-768 0 32 32 0 0 0-64 0 448.11 448.11 0 0 0 860.78 174.392A445.223 445.223 0 0 0 960-64a32 32 0 0 0-32-32z"  horiz-adv-x="1024" />

    
    <glyph glyph-name="shouji" unicode="&#58889;" d="M512 61.44c20.48 0 38.4 17.92 38.4 38.4s-17.92 38.4-38.4 38.4-38.4-17.92-38.4-38.4 17.92-38.4 38.4-38.4z m192 742.4H320c-56.32 0-102.4-46.08-102.4-102.4v-614.4c0-56.32 46.08-102.4 102.4-102.4h384c56.32 0 102.4 46.08 102.4 102.4v614.4c0 56.32-46.08 102.4-102.4 102.4z m51.2-716.8c0-28.16-23.04-51.2-51.2-51.2H320c-28.16 0-51.2 23.04-51.2 51.2v76.8h486.4v-76.8z m0 128H268.8v409.6h486.4v-409.6z m0 460.8H268.8v25.6c0 28.16 23.04 51.2 51.2 51.2h384c28.16 0 51.2-23.04 51.2-51.2v-25.6z"  horiz-adv-x="1024" />

    
    <glyph glyph-name="erweima4" unicode="&#58898;" d="M178.3 355.1v60.3H118v-60.3h60.3z m20-284.1h121.3V193.6H198.3V71z m343.1 545.2h-60.7v-60.1h60.7v60.1z m-221.7 81.1H198.3v-122.6h121.3V697.3z m362.4-423.4h-60.2v-60.1h181v60.1h-60v60.9h-60.7v-60.9zM541.4 778.2h-60.7V657h60.7V778.2z m-0.3-463.9h60.7v59.8h60.4v61.4h-60.7v-60.4h-60.4v-60.8z m201.8-201.5V173h-60.7v-60.1h60.7z m60.4 282.4h-60.7v-60.1h60.7v60.1zM420.1 797.8H97.7V476h322.4V797.8zM380.2 516H138.3V757.2h241.9V516z m463.1-160.8H904v58.9h-60.7v-58.9z m0-302.5h-40v59.8h-60.7v-59.8h-60.5v-61.4H904v59.2h0.1V173.6h-60.7v-120.9z m0 161.5H904v60.1h-60.7v-60.1z m-19.9 483.1H702v-122.6h121.3V697.3zM601.7 797.8V476h322.4V797.8H601.7zM883.6 516H641.7V757.2h241.9V516zM541.4 173.9h60.4v58.9h-60.4v81.4h-60.7v-321.4h60.4v-0.8h60.7v60.1h-60.4V173.9zM238.9 354.4h201.7v61H238.9v-61z m302.5 161.3h-61v-60.1h61v60.1zM601.5 53h60.7v60.1h-60.7V53zM97.6-28.1H420V293.7H97.6v-321.8z m40.7 281.2h241.9v-241.2H138.3V253.1z"  horiz-adv-x="1024" />

    
    <glyph glyph-name="liulan" unicode="&#58970;" d="M511.388 679.909c228.074 0 412.418-289.78 412.418-289.78 0.28-0.438 0.28-1.155 0-1.594 0 0-184.344-289.78-412.418-289.78-228.044 0-412.418 289.78-412.418 289.78-0.279 0.439-0.279 1.156 0 1.594 0 0.001 184.374 289.78 412.418 289.78m0 58.55c-62.002 0-125.551-17.675-188.88-52.535-48.246-26.557-96.572-63.196-143.636-108.901-78.619-76.349-127.269-152.268-129.3-155.462-12.45-19.586-12.45-44.869-0.015-64.433 2.046-3.216 50.696-79.135 129.315-155.484 47.063-45.704 95.39-82.345 143.635-108.901 63.33-34.86 126.879-52.536 188.88-52.536 62.01 0 125.562 17.676 188.892 52.535 48.249 26.557 96.574 63.198 143.637 108.903 78.616 76.35 127.259 152.27 129.29 155.465 12.46 19.584 12.46 44.863 0 64.447-2.031 3.195-50.674 79.114-129.29 155.465-47.063 45.705-95.388 82.345-143.637 108.903-63.33 34.859-126.882 52.534-188.891 52.534zM511.388 496.388c59.126 0 107.054-47.942 107.054-107.055 0-59.112-47.928-107.054-107.054-107.054-59.13 0-107.055 47.943-107.055 107.054 0 59.113 47.925 107.055 107.055 107.055m0 58.55c-22.333 0-44.028-4.387-64.484-13.041-19.727-8.345-37.43-20.28-52.62-35.47-15.189-15.19-27.12-32.895-35.464-52.621-8.652-20.453-13.037-42.145-13.037-64.474s4.386-44.02 13.037-64.472c8.343-19.727 20.275-37.43 35.463-52.62 15.19-15.193 32.894-27.126 52.62-35.472 20.457-8.653 42.152-13.041 64.485-13.041 22.33 0 44.027 4.387 64.482 13.041 19.727 8.346 37.431 20.28 52.621 35.47 15.188 15.191 27.12 32.894 35.465 52.621 8.65 20.453 13.037 42.146 13.037 64.473s-4.387 44.02-13.037 64.475c-8.345 19.725-20.277 37.43-35.465 52.62-15.19 15.19-32.894 27.124-52.62 35.47-20.456 8.654-42.151 13.041-64.483 13.041z"  horiz-adv-x="1024" />

    
    <glyph glyph-name="biaoqian1" unicode="&#58887;" d="M485.1-46.9c-28.3 0-54.9 11.1-74.9 31.1L112.6 283.7C71.6 325 71.8 392 113 433l331.2 329.3c23.7 23.5 56.8 34.5 90.3 29.5l280.2-17.1c48.1-7.2 83.7-43 90.5-89.4l15.8-284c4.6-31-6.6-64.7-30.2-88.2L559.5-16.2c-19.9-19.8-46.3-30.7-74.4-30.7z m33.5 797.7c-16.8 0-32.7-6.5-44.7-18.4L142.8 403.1c-24.8-24.6-24.9-64.8-0.3-89.6L440.2 14c23.8-24 65.6-24.1 89.6-0.3L860.9 343c14.2 14.1 20.9 34.3 18 54l-15.8 284c-3.9 25.9-25.2 47.4-53 51.6L530 749.8c-5 0.7-8.2 1-11.4 1zM665.7 425.2c-28.2 0-54.7 11-74.6 30.9-19.9 19.9-30.9 46.4-30.9 74.6 0 28.2 11 54.7 30.9 74.6 19.9 19.9 46.4 30.9 74.6 30.9 28.2 0 54.7-11 74.7-30.9 19.9-19.9 30.9-46.4 30.9-74.6 0-28.2-11-54.7-30.9-74.6-20-19.9-46.5-30.9-74.7-30.9z m0 168.9c-16.9 0-32.8-6.6-44.8-18.5-12-12-18.6-27.9-18.6-44.8s6.6-32.8 18.6-44.8c23.9-23.9 65.6-23.9 89.6 0 12 12 18.5 27.9 18.5 44.8s-6.6 32.8-18.5 44.8c-12 11.9-27.9 18.5-44.8 18.5z"  horiz-adv-x="1024" />

    
    <glyph glyph-name="chakan1" unicode="&#59096;" d="M513 506.66c-95.38-3-172-80.29-207.82-123.83 70.45-85.35 143.23-127.41 216.64-125.07 95.37 3 172 80.29 207.81 123.84C659.15 466.95 586.43 509 513 506.66z m4.41-228.89A101.34 101.34 0 1 0 618.7 379.1a101.45 101.45 0 0 0-101.33-101.33zM512 833C264 833 63 632 63 384s201-449 449-449 449 201 449 449S760 833 512 833z m11.69-626.52c-2.62-0.08-5.25-0.13-7.86-0.13-96.05 0-188 58.36-273.55 173.59l-2.23 1.44c4.48 7 111.52 171.29 271 176.56 98.87 3.26 193.55-55.09 281.4-173.46l2.23-1.43c-4.48-6.99-111.52-171.3-270.99-176.57z"  horiz-adv-x="1024" />

    
    <glyph glyph-name="msnui-link" unicode="&#58891;" d="M512 880.459294c272.323765 0 493.116235-222.268235 493.116235-496.459294 0-274.191059-220.762353-496.459294-493.116235-496.459294S18.883765 109.808941 18.883765 384C18.883765 658.191059 239.646118 880.459294 512 880.459294zM639.277176 632.1091759999999c45.899294-2.680471 87.280941-25.419294 108.694589-75.956705 21.744941-51.350588 12.077176-99.087059-25.47953-139.896471-26.563765-28.822588-55.115294-55.868235-83.004235-83.456-12.107294-12.016941-31.533176-12.378353-42.014118-1.325176-10.631529 11.203765-9.456941 26.563765 3.282824 39.424 27.376941 27.557647 55.145412 54.753882 82.251294 82.55247 40.809412 41.893647 22.678588 108.544-33.701647 123.572706-23.461647 6.234353-45.989647 1.927529-63.819294-14.727529-28.702118-26.774588-55.717647-55.326118-84.299294-82.130824-6.053647-5.692235-16.082824-10.601412-23.94353-10.089412-21.022118 1.264941-31.653647 26.834824-17.106823 42.014118 31.262118 32.677647 63.186824 64.843294 96.737882 95.081412 20.449882 18.462118 47.073882 24.786824 82.401882 24.937411zM264.583529 263.378824c0.210824 35.237647 12.438588 65.686588 37.074824 90.804705 27.166118 27.768471 54.784 55.115294 82.341647 82.492236 13.101176 13.010824 29.184 14.004706 40.267294 2.831059 11.535059-11.655529 10.420706-26.352941-3.252706-40.116706-26.232471-26.383059-52.886588-52.464941-78.878117-79.149177-32.135529-32.948706-33.490824-77.402353-3.885177-107.248941 28.340706-28.581647 75.173647-28.702118 104.779294 0.210824 26.925176 26.322824 53.097412 53.398588 79.932236 79.751529 16.112941 15.811765 40.628706 10.179765 44.875294-11.113412 1.536-7.649882-1.536-19.184941-6.806589-24.756706-29.184-30.840471-58.307765-61.952-90.081882-89.901176-38.912-34.243765-84.510118-39.936-132.035765-19.184941-45.959529 20.058353-74.179765 65.295059-74.330353 115.380706z m355.960471 200.975058c-1.716706-3.192471-3.674353-10.119529-8.101647-14.637176a24175.525647 24175.525647 0 0 0-161.310118-162.725647c-11.474824-11.504941-27.798588-10.721882-38.610823 0.210823-10.872471 11.023059-10.571294 26.142118 1.536 38.339765 53.037176 53.308235 106.224941 106.496 159.382588 159.623529 8.613647 8.643765 18.733176 12.257882 30.509176 7.137883 10.480941-4.577882 15.811765-12.950588 16.594824-27.949177z m0 0"  horiz-adv-x="1024" />

    
    <glyph glyph-name="youxiang1" unicode="&#58974;" d="M204.8 53.3504a108.8 108.8 0 0 0-108.8 108.8V605.8496c0 60.1088 48.6912 108.8 108.8 108.8h614.4c60.1088 0 108.8-48.6912 108.8-108.8v-443.6992A108.8 108.8 0 0 0 819.2 53.3504H204.8z m0 64h614.4a44.8 44.8 0 0 1 44.8 44.8V605.8496A44.8 44.8 0 0 1 819.2 650.6496H204.8a44.8 44.8 0 0 1-44.8-44.8v-443.6992c0-24.7808 20.0704-44.8 44.8-44.8zM139.5712 508.8256a32 32 0 1 0 28.0576 57.5488l335.9744-163.9936c5.2736-2.56 11.52-2.56 16.7936 0l335.9744 163.9936a32 32 0 1 0 28.0576-57.5488l-335.9232-163.9424c-23.04-11.264-49.9712-11.264-73.0112 0L139.5712 508.8256z"  horiz-adv-x="1024" />

    
    <glyph glyph-name="zan1" unicode="&#58900;" d="M868.354104 328.881658c56.047504 0 84.071767 168.143535 0 168.143535L700.206476 497.025193c168.147628 280.242635 46.413076 336.290139 0 336.290139 0-142.373615-209.370495-301.023938-420.36293-364.314403L279.843546 20.619875999999977l-56.047504 0L223.796042 469.006046l56.047504 0 0 28.02938L167.749562 497.035426c-30.828123 0-56.047504-37.83777-56.047504-84.076884l0-336.291163c0-46.239114 25.219381-84.070744 56.047504-84.070744l112.095008 0 0 28.018124c238.850923-24.823362 155.578358-84.070744 392.338666-84.070744 56.047504 0 112.095008 28.02324 112.095008 84.070744 56.05262 0 84.076884 140.119271 56.05262 140.119271C896.378367 160.73402999999996 932.281065 328.881658 868.354104 328.881658L868.354104 328.881658zM868.354104 328.881658"  horiz-adv-x="1024" />

    
    <glyph glyph-name="huo" unicode="&#59038;" d="M826.959 653.548c-6.223 6.341-16.62 2.088-16.62-6.38 0-53.051 20.755-129.457-64.316-163.446 0 0 12.446 356.549-365.095 411.766-8.31 2.087-14.572-6.38-12.446-14.887 14.494-50.925 41.472-207.951-93.341-305.625-8.35-6.302-14.572-10.594-22.843-16.935-39.424 50.924-97.516 70.025-122.408 74.279-4.135 2.127-8.27-4.254-6.222-8.507 37.336-106.102-35.289-222.838-35.289-222.838h2.087c-47.694-72.113-66.363-157.027-33.2-278.016 0 0 66.402-201.65 315.352-250.447l-8.27 8.507s-151.474 157.066-85.072 339.574c37.337 97.635 116.185 150.686 116.185 150.686s-37.376-127.33 49.782-165.534c0 0-14.572 191.016 145.211 258.915 0 0-18.668-99.762 62.228-216.498C735.665 129.34 791.71-17.093 681.708-112.6c-4.135-2.126-6.222-6.38-10.358-8.507 122.408 31.823 199.168 103.976 251.038 176.168 78.808 112.482 114.097 365.016-95.43 598.488z"  horiz-adv-x="1024" />

    
    <glyph glyph-name="touxiang1" unicode="&#58934;" d="M517.08-69.292c-250.637 0-454.985 204.348-454.985 454.985 0 250.638 204.348 454.986 454.985 454.986s456.115-204.348 456.115-454.986c0-250.637-204.348-454.985-456.115-454.985z m0 853.521c-220.154 0-398.535-179.51-398.535-398.536s179.51-398.535 398.535-398.535 398.536 179.51 398.536 398.535S737.235 784.23 517.08 784.23zM207.735 70.703c-9.032 0-18.064 4.516-23.709 12.42-9.032 12.418-5.645 30.482 7.903 39.514 13.548 9.032 39.515 21.451 72.256 37.257 49.676 23.71 125.319 59.837 149.028 83.546 2.258 5.645 0 25.967-9.032 33.87-27.096 23.709-97.094 88.062-74.514 242.734 22.58 159.189 144.512 176.124 196.445 176.124 110.642 0 184.027-66.611 196.446-177.253 18.064-154.672-51.934-220.154-74.514-241.605-9.032-9.032-11.29-29.354-7.903-35 13.548-14.676 107.255-56.449 152.415-76.77 49.676-21.452 62.094-28.226 68.868-33.87 11.29-10.162 13.548-28.226 2.258-39.516-10.16-11.29-27.095-12.419-38.385-3.387-5.645 3.387-32.741 15.806-55.321 25.967-103.868 46.29-155.802 71.127-172.737 92.578-23.709 28.225-16.935 83.546 12.42 111.77 30.482 29.355 69.997 80.16 57.578 194.188-12.419 104.997-83.546 126.448-139.996 126.448-55.32 0-125.318-22.58-141.124-127.577-18.064-124.19 32.74-170.478 56.45-193.058 16.935-14.677 27.096-39.515 28.225-65.482 0-20.322-5.645-37.257-16.935-48.547-30.483-30.483-101.61-65.482-165.963-94.836-28.225-13.548-55.32-25.967-65.482-32.74-4.516-5.646-9.032-6.775-14.677-6.775z"  horiz-adv-x="1024" />

    
    <glyph glyph-name="diannao" unicode="&#58885;" d="M940.63589744 752.88410257H83.72615385c-16.81025641 0-30.43692308-13.62666667-30.43692308-30.43589744v-540.4851282c0-16.81025641 13.62666667-30.43692308 30.43692308-30.43692308h856.90666666c16.81025641 0 30.43692308 13.62666667 30.43692308 30.43692308V722.44820513c0.00102564 16.80923077-13.62564103 30.43589744-30.43589744 30.43589744z m-22.60205129-525.56615385c0-14.03794872-12.05641026-25.4174359-26.93128205-25.41743589h-758.2051282c-14.87384615 0-26.93128205 11.37948718-26.93128205 25.41743589V678.66564103c0 14.03794872 12.05641026 25.4174359 26.93128205 25.4174359h758.2051282c14.87384615 0 26.93128205-11.37948718 26.93128205-25.4174359v-451.34769231zM601.12512821 46.577435899999955c0-16.81025641-13.62666667-30.43692308-30.43692308-30.43692307h-117.01538462c-16.80820513 0-30.43589744 13.62769231-30.43589743 30.43692307V143.12820512999997c0 16.81025641 13.62769231 30.43692308 30.43692307 30.43692308h117.01538462c16.81025641 0 30.43692308-13.62769231 30.43692308-30.43692308v-96.54974358zM748.05435897 13.518974370000024c0-16.81025641-13.62769231-30.43692308-30.43692307-30.43692308H303.07179487c-16.81025641 0-30.43692308 13.62769231-30.43692308 30.43692308v9.96717948c0 16.81025641 13.62666667 30.43692308 30.43692308 30.43692308h414.54564103c16.81025641 0 30.43692308-13.62666667 30.43692307-30.43692308v-9.96717948z"  horiz-adv-x="1024" />

    
    <glyph glyph-name="shiliangzhinengduixiang1" unicode="&#58893;" d="M1234.583704 530.204444L868.219259 164.02963c-16.877037-16.877037-42.666667-19.531852-62.388148-7.964445-3.602963 2.085926-7.205926 4.740741-10.24 7.964445L584.817778 374.897778c-19.911111 19.911111-19.911111 52.527407 0 72.438518 19.911111 19.911111 52.527407 19.911111 72.438518 0l174.648889-174.743703 330.050371 330.05037c19.911111 19.911111 52.527407 19.911111 72.438518 0 20.100741-20.005926 20.100741-52.527407 0.18963-72.438519z m0 0"  horiz-adv-x="1820" />

    
    <glyph glyph-name="guanbi1" unicode="&#58880;" d="M819.43773308 57.510802119999994a25.24793148 25.24793148 0 0 0-17.84677073 7.40116078L193.64596748 672.8569578a25.19544098 25.19544098 0 1 0 35.69354138 35.69354141l607.99748541-607.99748541a25.30042199 25.30042199 0 0 0-17.89926119-43.04221168M211.49273817 57.510802119999994a25.19544098 25.19544098 0 0 0-17.84677069 43.09470218L801.64345286 708.55049921a25.24793148 25.24793148 0 0 0 35.64105091-35.69354141L229.33950886 64.91196290000005a25.19544098 25.19544098 0 0 0-17.8467707-7.40116077"  horiz-adv-x="1024" />

    
    <glyph glyph-name="touxiang2" unicode="&#59064;" d="M511.488 896c282.5216 0 511.488-229.0176 511.488-511.3344a509.184 509.184 0 0 0-109.1072-315.8016 513.536 513.536 0 0 0-301.0048-185.9584c17.3056 0.6144-40.5504-9.8304-100.864-9.8304h-0.6144a510.0544 510.0544 0 0 0-168.8576 28.5696 517.0176 517.0176 0 0 0-272.1792 223.744C41.8304 152.6784 0 263.424 0 383.8976v0.6656C0 666.9824 229.0688 896 511.488 896z m173.4144-737.6384l188.416-74.2912a468.3264 468.3264 0 0 1 103.1168 294.1952v1.28c0 259.4816-208.1792 469.9648-464.9472 469.9648-256.8192 0-464.9984-210.432-464.9984-470.016a471.552 471.552 0 0 1 104.7552-297.216L322.56 159.4368s47.2064 14.6432 60.16 29.3376c8.704 9.728 11.264 41.8816 0.3584 63.0784-10.8544 21.1456-80.7424 137.5744-80.7424 235.008 0 157.3888 83.0976 237.568 209.152 237.6704 126.1568 0 209.2032-80.384 209.2032-237.6192 0-101.7344-79.2064-213.9136-87.3984-241.4592-8.192-27.5456-8.8576-49.2544 0.3584-58.368 14.3872-14.2848 51.2512-28.672 51.2512-28.672z"  horiz-adv-x="1024" />

    
    <glyph glyph-name="fenlei" unicode="&#58940;" d="M712.91234016 8.915662350000048c70.42288238 0 128.41819614 57.99531498 128.41819614 128.41819735 0 70.42288238-57.99531498 128.41819614-128.41819614 128.41819614-70.42288238 0-128.41819614-57.99531498-128.41819735-128.41819614 0-70.42288238 57.99531498-128.41819614 128.41819735-128.41819735z m0-62.13783704c-105.63432297 0-190.55603317 84.92171022-190.55603439 190.55603439s84.92171022 190.55603317 190.55603439 190.55603318 190.55603317-84.92171022 190.55603317-190.55603318-84.92171022-190.55603317-190.55603317-190.55603439zM373.22549689 433.52421584c24.85513482 0 43.49648592 20.71261275 43.49648592 43.49648593v169.84342163c0 24.85513482-20.71261275 43.49648592-43.49648592 43.49648594h-169.84342044c-22.78387317 2.07126164-43.49648592-18.64135111-43.49648592-41.4252255v-169.84342044c0-24.85513482 20.71261275-43.49648592 43.49648592-43.49648592h169.84342044z m0-62.13783703h-169.84342044c-57.99531498 0-105.63432297 47.63900799-105.63432296 105.63432296v169.84342163c0 57.99531498 47.63900799 105.63432297 105.63432296 105.63432297h169.84342044c57.99531498 0 105.63432297-47.63900799 105.63432295-105.63432297v-169.84342163c2.07126164-57.99531498-45.56774756-105.63432297-105.63432295-105.63432296zM373.22549689 8.915662350000048c24.85513482 0 43.49648592 20.71261275 43.49648592 43.49648593v169.84342164c0 24.85513482-20.71261275 43.49648592-43.49648592 43.49648592h-169.84342044c-24.85513482 0-43.49648592-20.71261275-43.49648592-43.49648592v-169.84342164c0-24.85513482 20.71261275-43.49648592 43.49648592-43.49648593h169.84342044z m0-62.13783704h-169.84342044c-57.99531498 0-105.63432297 47.63900799-105.63432296 105.63432297v169.84342164c0 57.99531498 47.63900799 105.63432297 105.63432296 105.63432296h169.84342044c57.99531498 0 105.63432297-47.63900799 105.63432295-105.63432296v-169.84342164c2.07126164-57.99531498-45.56774756-105.63432297-105.63432295-105.63432297zM797.83405037 433.52421584c24.85513482 0 43.49648592 20.71261275 43.49648593 43.49648593v169.84342163c0 24.85513482-20.71261275 43.49648592-43.49648593 43.49648594h-169.84342164c-24.85513482 0-43.49648592-20.71261275-43.49648592-43.49648594v-169.84342163c0-24.85513482 20.71261275-43.49648592 43.49648592-43.49648593h169.84342164z m0-62.13783703h-169.84342164c-57.99531498 0-105.63432297 47.63900799-105.63432296 105.63432296v169.84342163c0 57.99531498 47.63900799 105.63432297 105.63432296 105.63432297h169.84342164c57.99531498 0 105.63432297-47.63900799 105.63432296-105.63432297v-169.84342163c2.07126164-57.99531498-45.56774756-105.63432297-105.63432296-105.63432296zM849.61558164 27.557013460000007l39.35396265-47.63900799c10.35630577-12.42756741 8.28504534-33.14018016-4.14252207-43.49648593-12.42756741-10.35630577-33.14018016-8.28504534-43.49648592 4.14252207L801.97657244-13.868210819999945c-10.35630577 12.42756741-8.28504534 33.14018016 4.14252327 43.49648593 12.42756741 12.42756741 31.06891852 10.35630577 43.49648593-2.07126165z"  horiz-adv-x="1024" />

    
    <glyph glyph-name="xiala-" unicode="&#58921;" d="M778.496 492.544a30.72 30.72 0 0 0-8.96-21.76l-230.4-230.4a30.72 30.72 0 0 0-43.52 0l-230.4 230.4a30.72 30.72 0 1 0 43.52 43.52l208.64-208.64 208.64 208.64a30.72 30.72 0 0 0 51.2-21.76z"  horiz-adv-x="1024" />

    
    <glyph glyph-name="icon_hover_lianjie" unicode="&#58929;" d="M955.733333 486.4c0-8.533333 0-8.533333 0 0L861.866667 384c-25.6-17.066667-59.733333-17.066667-76.8 0-17.066667 17.066667-17.066667 51.2 0 76.8l93.866666 85.333333c59.733333 51.2 59.733333 145.066667 0 196.266667-34.133333 34.133333-68.266667 51.2-110.933333 51.2s-76.8-17.066667-102.4-42.666667L469.333333 554.666667c-59.733333-51.2-59.733333-145.066667 0-196.266667 17.066667-17.066667 17.066667-51.2 0-76.8-17.066667-8.533333-25.6-17.066667-42.666666-17.066667s-25.6 8.533333-34.133334 17.066667c-93.866667 93.866667-102.4 247.466667-8.533333 341.333333l8.533333 8.533334L588.8 827.733333C640 870.4 699.733333 896 768 896s128-25.6 179.2-68.266667c102.4-93.866667 102.4-247.466667 8.533333-341.333333zM238.933333 307.2l-93.866666-85.333333c-59.733333-51.2-59.733333-145.066667 0-196.266667 25.6-25.6 68.266667-42.666667 102.4-42.666667s76.8 17.066667 102.4 42.666667L554.666667 213.333333c59.733333 51.2 59.733333 145.066667 0 196.266667-17.066667 17.066667-17.066667 51.2 0 76.8 25.6 17.066667 51.2 17.066667 76.8 0 93.866667-93.866667 102.4-247.466667 8.533333-341.333333l-8.533333-8.533334-196.266667-196.266666c-51.2-42.666667-110.933333-68.266667-179.2-68.266667s-128 25.6-179.2 68.266667c-93.866667 93.866667-102.4 247.466667-8.533333 341.333333l8.533333 8.533333 93.866667 85.333334c25.6 17.066667 51.2 17.066667 76.8 0 17.066667-17.066667 17.066667-42.666667-8.533334-68.266667 8.533333 0 0 0 0 0z"  horiz-adv-x="1025" />

    
    <glyph glyph-name="bijiben" unicode="&#59497;" d="M156.8 705.6h712c8 0 14.4-3.2 20.8-8s9.6-12.8 9.6-20.8v-508.8c0-8-3.2-14.4-9.6-20.8-6.4-4.8-12.8-8-20.8-8H156.8c-8 0-14.4 3.2-20.8 8s-9.6 12.8-9.6 20.8V678.4c0 8 3.2 14.4 9.6 20.8 4.8 4.8 12.8 6.4 20.8 6.4zM70.4 62.4c-11.2-1.6-20.8 4.8-25.6 12.8-4.8 9.6-4.8 20.8 0 28.8 4.8 9.6 16 14.4 25.6 12.8h884.8c11.2 1.6 20.8-4.8 25.6-12.8 4.8-9.6 4.8-20.8 0-28.8-4.8-9.6-16-14.4-25.6-12.8H70.4z m768 587.2H185.6v-452.8h652.8V649.6z m0 0"  horiz-adv-x="1024" />

    
    <glyph glyph-name="lianjie" unicode="&#58942;" d="M560.88421734 593.22163086l30.58678089 31.08590214 0.19907185-0.19907108c22.74606332 29.6924024 58.20191794 49.14080628 98.47587473 49.14080629 68.73923449 0 124.42727534-55.68804085 124.4272761-124.42727608 0-40.27491919-19.44840389-75.72981217-49.09175956-98.47587474l0.15002432-0.14714024-69.57687246-69.57591085 0.0980927-0.09809269c-22.84415681-29.64335644-58.29904903-49.04271282-98.57396822-49.04271359-36.63489497 0-66.52252271 13.05023202-87.99145142 33.92579407-9.00821842 10.24015202-21.81129351 17.03646676-36.585849 17.03646678-27.13044095 0-49.23793737-22.05941129-49.23793737-49.23793739 0-13.88498513 5.86058329-26.29280298 15.11691873-35.30486788l-0.19522455-0.19522456c40.62016885-40.77115478 96.85253039-66.07917955 158.94259036-66.07918033 67.79965654 0 127.872075 30.77431245 169.13465725 78.38601982l0.49238912-0.58952018 69.57687246 69.67400432-0.15002432 0.14617782c47.07411881 41.11640445 77.45413488 102.27073295 77.45413487 169.57896125C914.13485219 672.51260784 813.83656052 772.81089951 690.14594481 772.81089951c-67.30726745 0-128.46159595-30.38001607-169.57799963-77.45413488l-0.14617781 0.15002433-29.94821399-31.82160014 0.49238833-0.44334236c-8.56872256-8.86588709-13.93691675-20.77843097-13.93691598-34.02388678 0-27.1794877 22.11134291-49.238899 49.24178388-49.23889976 13.24257094 0 25.15800045 5.36530932 34.02388755 13.88498513l0.58952018-0.64241419z m-39.52768015-530.0904105l0.19522455-0.19907106 27.92672598 32.88523777-0.44334236 0.39429561c8.51967581 8.86203983 13.88498513 20.77746934 13.88498515 33.92194681 0 27.23141932-22.01036533 49.24178463-49.23793738 49.24178463-13.34354929 0-25.16184695-5.27010072-33.97484083-13.83978487l-0.58952017 0.69146013-28.61818689-32.0437525-0.19522457 0.19522455c-22.79895658-29.74144913-58.29904903-49.14080628-98.47683714-49.14080629C283.08931067 85.23775513999999 227.4003082 141.02773598 227.4003082 209.66503124999997c0 40.27876569 19.49744985 75.68076544 49.14080552 98.47587474l-0.19907106 0.10097835 69.62495759 69.62207272-0.0971311 0.0980927c22.74606332 29.64335644 58.24615579 49.04271282 98.5249215 49.04271358 36.58584823 0 66.42442922-13.04638476 87.94240547-33.87674735 9.00821842-10.29016037 21.76224676-17.08551349 36.58200171-17.08551349 27.23141932 0 49.23793737 22.01036533 49.23793738 49.23793737 0 13.88883164-5.85673601 26.34569621-15.11307223 35.3048679l0.29331803 0.19907106c-40.62016885 40.81923991-96.85253039 66.07917955-158.94259036 66.07918033-67.79965654 0-127.92112174-30.72526572-169.08561053-78.29177361l-0.54143583 0.44334235-69.62495759-69.62591922 0.10097837-0.1461778C158.21869298 338.08238859000005 127.83867614 276.97325953999996 127.83867614 209.66599286999997c0-123.68676843 100.29829168-223.9889074 223.98890739-223.98890738 67.30726745 0.04808512 128.3644641 30.43194767 169.52895366 77.45413487z m0 0"  horiz-adv-x="1057" />

    
    <glyph glyph-name="gouxuan-copy" unicode="&#58894;" d="M274.45791185 432.88325932a28.64253473 28.64253473 0 0 1-40.4814491-40.48144913l190.95023163-190.95023163a28.64253473 28.64253473 0 0 1 40.48144911 0l324.61539376 324.61539377a28.64253473 28.64253473 0 0 1-40.4814491 40.48144911L445.16741892 262.21194227l-170.70950707 170.70950707z"  horiz-adv-x="1024" />

    
    <glyph glyph-name="chakan2" unicode="&#58888;" d="M512 896C228.693 896 0 667.307 0 384s228.693-512 512-512 512 228.693 512 512S795.307 896 512 896z m0-730.453c-221.867 0-317.44 215.04-317.44 215.04s102.4 215.04 317.44 215.04 317.44-218.454 317.44-218.454S733.867 165.547 512 165.547z m0 0M512 517.12c-78.507 0-133.12-58.027-133.12-133.12S433.493 250.88 512 250.88 645.12 308.907 645.12 384 590.507 517.12 512 517.12z m0-211.627c-44.373 0-78.507 37.547-78.507 78.507 0 44.373 34.134 78.507 78.507 78.507 44.373 0 78.507-37.547 78.507-78.507 3.413-44.373-34.134-78.507-78.507-78.507z m0 0"  horiz-adv-x="1024" />

    
    <glyph glyph-name="gouxuan" unicode="&#58904;" d="M420 134.3c-8.4 0-16.8 3.2-23.3 9.6L148.6 392c-12.8 12.8-12.8 33.7 0 46.5 12.8 12.8 33.7 12.8 46.5 0L420 213.7l410.9 410.9c12.8 12.8 33.7 12.8 46.5 0 12.8-12.8 12.8-33.7 0-46.5L443.2 143.9c-6.4-6.4-14.8-9.6-23.2-9.6z m0 0"  horiz-adv-x="1024" />

    
    <glyph glyph-name="jiantou1-copy" unicode="&#59177;" d="M787.5 497.501l-274.25599999-274.256-274.25600001 274.25600001z"  horiz-adv-x="1024" />

    
    <glyph glyph-name="jiantou1-copy1" unicode="&#59178;" d="M236.5 270.499l274.25599999 274.256 274.25600001-274.25600001z"  horiz-adv-x="1024" />

    
    <glyph glyph-name="xiala--copy" unicode="&#59179;" d="M245.504 275.456a30.72 30.72 0 0 0 8.96 21.76l230.4 230.4a30.72 30.72 0 0 0 43.52 0l230.4-230.4a30.72 30.72 0 1 0-43.51999999-43.52l-208.64000001 208.64000001-208.64-208.64000001a30.72 30.72 0 0 0-51.2 21.76z"  horiz-adv-x="1024" />

    
    <glyph glyph-name="yinhao2-copy" unicode="&#59180;" d="M248 353L447 353 447-29l-382 0 0 339q-18 321 322 487l86-131q-217-113-225-313z m487 0L934 353 934-29l-382 0 0 339q-18 321 322 487L960 666q-226-122-226-313z"  horiz-adv-x="1024" />

    
    <glyph glyph-name="yinhao1-copy" unicode="&#59181;" d="M364.48684444-88.88888888999998c-176.63999999 0-319.99999969 153.6-319.99999968 342.88000031C44.48684474 253.99111142000004 27.28684444 802.5511108000001 684.48684413 871.11111111l1e-8-68.56000031s-274.39999969-32.23999969-396.48000001-216.72c24.64000031 6.55999969 49.99999969 10.96000031 76.48000031 10.96000031 176.80000031 0 319.99999969-153.52000031 319.9999997-342.79999969C684.48684413 64.63111142000002 541.20684413-88.88888888999998 364.48684444-88.88888888999998z m720 0c-176.63999999 0-319.99999969 153.6-319.99999967 342.88000031 0 0-17.27999999 548.56000032 639.99999936 617.11999969l0-68.56000031s-274.39999969-32.23999969-396.48-216.71999999c24.64000031 6.55999969 49.99999969 10.96000031 76.48000031 10.9600003 176.80000031 0 319.99999969-153.52000031 319.99999969-342.79999969C1404.48684413 64.63111141000002 1261.20684413-88.88888888999998 1084.48684444-88.88888888999998z"  horiz-adv-x="1450" />

    


  </font>
</defs>
</svg>
